<svg xmlns="http://www.w3.org/2000/svg" width="20" height="20" viewBox="0 0 20 20" fill="none">
  <path d="M12.8166 14.975C10.6783 16.5117 8.13828 15.9233 6.68411 15.3608C6.06828 16.6942 5.86079 17.6084 5.85663 17.6292C5.79413 17.9234 5.5341 18.1242 5.24577 18.1242C5.20327 18.1242 5.15996 18.12 5.11663 18.1108C4.77913 18.04 4.56326 17.7092 4.63409 17.3717C4.67826 17.16 5.71414 12.4417 10.4308 8.40837C8.59497 9.25753 6.08495 11.1817 4.81745 14.125C3.72578 11.9417 3.7091 7.90001 7.24243 5.99168C8.7341 5.19168 10.2425 5.03333 12.0675 4.40833C13.3841 3.94999 14.1591 3.03337 14.4758 2.57503C14.5508 2.45837 14.7174 2.48335 14.7591 2.60835C15.3416 4.18335 17.6833 11.475 12.8166 14.975Z" fill="white"/>
</svg>