<svg xmlns="http://www.w3.org/2000/svg" width="20" height="20" viewBox="0 0 20 20" fill="none">
  <path d="M17.5 10C17.5 14.1417 14.1417 17.5 10 17.5C5.85833 17.5 2.5 14.1417 2.5 10C2.5 8.15833 3.17164 6.46508 4.27831 5.16174L3.72498 4.60836C3.48081 4.36419 3.48081 3.96833 3.72498 3.72416C3.96914 3.48 4.365 3.48 4.60917 3.72416L10.4425 9.55749C10.6867 9.80166 10.6867 10.1975 10.4425 10.4417C10.3208 10.5634 10.1608 10.625 10.0008 10.625C9.84081 10.625 9.68084 10.5642 9.55917 10.4417L8.47916 9.36157C8.39666 9.55741 8.35164 9.7725 8.35164 10C8.35164 10.9167 9.10164 11.6667 10.0183 11.6667C10.935 11.6667 11.685 10.9167 11.685 10C11.685 9.08333 10.935 8.33333 10.0183 8.33333H10V6.04167C12.1833 6.04167 13.9583 7.81667 13.9583 10C13.9583 11.0583 13.55 12.0501 12.8083 12.8001C12.05 13.5501 11.0583 13.9583 10 13.9583C7.81667 13.9583 6.04167 12.1833 6.04167 10C6.04167 9.16 6.31332 8.35908 6.80166 7.68575L5.90164 6.78589C5.18414 7.70422 4.79167 8.82333 4.79167 10C4.79167 12.8717 7.12833 15.2083 10 15.2083C11.3858 15.2083 12.6942 14.6691 13.6892 13.6841C14.6683 12.6941 15.2083 11.385 15.2083 10C15.2083 7.12833 12.8717 4.79167 10 4.79167V2.5C14.1417 2.5 17.5 5.85833 17.5 10Z" fill="white"/>
</svg>