<svg xmlns="http://www.w3.org/2000/svg" width="20" height="20" viewBox="0 0 20 20" fill="none">
  <path d="M16.6417 17.4667L15.0251 16.925C14.7167 16.825 14.3916 16.825 14.1 16.9583C13.3666 17.3 12.5334 17.5 11.6667 17.5C10.0667 17.5 8.61084 16.8517 7.56251 15.8075C7.40417 15.65 7.53918 15.3758 7.75334 15.3933C12.0583 15.7842 15.7875 12.055 15.3917 7.74999C15.3517 7.51166 15.6426 7.37165 15.8751 7.64165C17.4859 9.21749 17.9851 12.0367 16.9585 14.1C16.6068 14.7167 17.325 16.035 17.4667 16.6416C17.6333 17.15 17.15 17.6334 16.6417 17.4667ZM14.1667 8.33252C14.1667 5.11169 11.555 2.5 8.33419 2.5C5.11336 2.5 2.50167 5.11169 2.50167 8.33252C2.50167 9.20085 2.69586 10.03 3.03919 10.7691C3.17586 11.0541 3.17596 11.385 3.07846 11.6891L2.53423 13.3092C2.36589 13.815 2.85176 14.3008 3.35759 14.1325L4.97746 13.5884C5.28246 13.4909 5.61247 13.4909 5.89747 13.6275C6.6358 13.9709 7.46586 14.165 8.33419 14.165C11.555 14.165 14.1667 11.5534 14.1667 8.33252Z" fill="white"/>
</svg>