<svg width="26" height="26" viewBox="0 0 26 26" fill="none" xmlns="http://www.w3.org/2000/svg">
<g filter="url(#filter0_dii_179_868)">
<rect x="1" y="1" width="24" height="24" rx="12" fill="url(#paint0_linear_179_868)"/>
<rect x="1" y="1" width="24" height="24" rx="12" fill="url(#paint1_linear_179_868)"/>
<rect x="1" y="1" width="24" height="24" rx="12" fill="url(#paint2_linear_179_868)"/>
<g filter="url(#filter1_d_179_868)">
<path d="M18.0755 11.6717C18.2837 10.2559 17.2094 9.48967 15.7269 8.98165L16.21 7.05783L15.044 6.76635L14.5776 8.64019C14.2695 8.56524 13.953 8.49028 13.6366 8.42366L14.1029 6.54149L12.937 6.25L12.4623 8.16548C12.2041 8.10719 11.9543 8.04889 11.7127 7.99059V7.98226L10.0971 7.58251L9.78894 8.83174C9.78894 8.83174 10.6551 9.03162 10.6384 9.03994C11.1131 9.15654 11.1964 9.47301 11.1797 9.72286L10.6301 11.9132C10.6634 11.9215 10.705 11.9298 10.755 11.9548C10.7134 11.9465 10.6717 11.9382 10.6301 11.9215L9.86389 14.9863C9.80559 15.1279 9.65569 15.3444 9.33089 15.2611C9.33921 15.2778 8.48141 15.0529 8.48141 15.0529L7.89844 16.3937L9.4225 16.7768C9.70565 16.8518 9.98049 16.9184 10.2553 16.9934L9.77228 18.9338L10.9382 19.2253L11.4213 17.3015C11.7377 17.3848 12.0542 17.4681 12.354 17.543L11.8793 19.4585L13.0453 19.75L13.5283 17.8095C15.5271 18.1843 17.0261 18.0344 17.6508 16.2272C18.1588 14.7781 17.6258 13.9369 16.5764 13.3873C17.3509 13.2124 17.9256 12.7043 18.0755 11.6717ZM15.4021 15.4193C15.044 16.8684 12.5955 16.0856 11.8044 15.8857L12.4456 13.3123C13.2368 13.5122 15.7852 13.9036 15.4021 15.4193ZM15.7686 11.6467C15.4355 12.9709 13.4034 12.2963 12.7454 12.1297L13.3284 9.79781C13.9863 9.96437 16.11 10.2725 15.7686 11.6467Z" fill="white" style="mix-blend-mode:overlay" shape-rendering="crispEdges"/>
<path d="M18.0755 11.6717C18.2837 10.2559 17.2094 9.48967 15.7269 8.98165L16.21 7.05783L15.044 6.76635L14.5776 8.64019C14.2695 8.56524 13.953 8.49028 13.6366 8.42366L14.1029 6.54149L12.937 6.25L12.4623 8.16548C12.2041 8.10719 11.9543 8.04889 11.7127 7.99059V7.98226L10.0971 7.58251L9.78894 8.83174C9.78894 8.83174 10.6551 9.03162 10.6384 9.03994C11.1131 9.15654 11.1964 9.47301 11.1797 9.72286L10.6301 11.9132C10.6634 11.9215 10.705 11.9298 10.755 11.9548C10.7134 11.9465 10.6717 11.9382 10.6301 11.9215L9.86389 14.9863C9.80559 15.1279 9.65569 15.3444 9.33089 15.2611C9.33921 15.2778 8.48141 15.0529 8.48141 15.0529L7.89844 16.3937L9.4225 16.7768C9.70565 16.8518 9.98049 16.9184 10.2553 16.9934L9.77228 18.9338L10.9382 19.2253L11.4213 17.3015C11.7377 17.3848 12.0542 17.4681 12.354 17.543L11.8793 19.4585L13.0453 19.75L13.5283 17.8095C15.5271 18.1843 17.0261 18.0344 17.6508 16.2272C18.1588 14.7781 17.6258 13.9369 16.5764 13.3873C17.3509 13.2124 17.9256 12.7043 18.0755 11.6717ZM15.4021 15.4193C15.044 16.8684 12.5955 16.0856 11.8044 15.8857L12.4456 13.3123C13.2368 13.5122 15.7852 13.9036 15.4021 15.4193ZM15.7686 11.6467C15.4355 12.9709 13.4034 12.2963 12.7454 12.1297L13.3284 9.79781C13.9863 9.96437 16.11 10.2725 15.7686 11.6467Z" fill="white" fill-opacity="0.9" shape-rendering="crispEdges"/>
</g>
</g>
<defs>
<filter id="filter0_dii_179_868" x="0.625" y="0.625" width="24.75" height="26.625" filterUnits="userSpaceOnUse" color-interpolation-filters="sRGB">
<feFlood flood-opacity="0" result="BackgroundImageFix"/>
<feColorMatrix in="SourceAlpha" type="matrix" values="0 0 0 0 0 0 0 0 0 0 0 0 0 0 0 0 0 0 127 0" result="hardAlpha"/>
<feMorphology radius="0.375" operator="dilate" in="SourceAlpha" result="effect1_dropShadow_179_868"/>
<feOffset/>
<feComposite in2="hardAlpha" operator="out"/>
<feColorMatrix type="matrix" values="0 0 0 0 0.968627 0 0 0 0 0.576471 0 0 0 0 0.101961 0 0 0 0.75 0"/>
<feBlend mode="normal" in2="BackgroundImageFix" result="effect1_dropShadow_179_868"/>
<feBlend mode="normal" in="SourceGraphic" in2="effect1_dropShadow_179_868" result="shape"/>
<feColorMatrix in="SourceAlpha" type="matrix" values="0 0 0 0 0 0 0 0 0 0 0 0 0 0 0 0 0 0 127 0" result="hardAlpha"/>
<feOffset dy="2.25"/>
<feGaussianBlur stdDeviation="1.5"/>
<feComposite in2="hardAlpha" operator="arithmetic" k2="-1" k3="1"/>
<feColorMatrix type="matrix" values="0 0 0 0 1 0 0 0 0 1 0 0 0 0 1 0 0 0 0.25 0"/>
<feBlend mode="overlay" in2="shape" result="effect2_innerShadow_179_868"/>
<feColorMatrix in="SourceAlpha" type="matrix" values="0 0 0 0 0 0 0 0 0 0 0 0 0 0 0 0 0 0 127 0" result="hardAlpha"/>
<feOffset dy="0.375"/>
<feGaussianBlur stdDeviation="0.375"/>
<feComposite in2="hardAlpha" operator="arithmetic" k2="-1" k3="1"/>
<feColorMatrix type="matrix" values="0 0 0 0 1 0 0 0 0 1 0 0 0 0 1 0 0 0 0.45 0"/>
<feBlend mode="normal" in2="effect2_innerShadow_179_868" result="effect3_innerShadow_179_868"/>
</filter>
<filter id="filter1_d_179_868" x="6.39844" y="4.75" width="16.2029" height="19.5" filterUnits="userSpaceOnUse" color-interpolation-filters="sRGB">
<feFlood flood-opacity="0" result="BackgroundImageFix"/>
<feColorMatrix in="SourceAlpha" type="matrix" values="0 0 0 0 0 0 0 0 0 0 0 0 0 0 0 0 0 0 127 0" result="hardAlpha"/>
<feOffset dx="1.5" dy="1.5"/>
<feGaussianBlur stdDeviation="1.5"/>
<feComposite in2="hardAlpha" operator="out"/>
<feColorMatrix type="matrix" values="0 0 0 0 0 0 0 0 0 0 0 0 0 0 0 0 0 0 0.25 0"/>
<feBlend mode="overlay" in2="BackgroundImageFix" result="effect1_dropShadow_179_868"/>
<feBlend mode="normal" in="SourceGraphic" in2="effect1_dropShadow_179_868" result="shape"/>
</filter>
<linearGradient id="paint0_linear_179_868" x1="13" y1="1" x2="13" y2="25" gradientUnits="userSpaceOnUse">
<stop stop-color="#A682EE"/>
<stop offset="1" stop-color="#733FDB"/>
</linearGradient>
<linearGradient id="paint1_linear_179_868" x1="1200.35" y1="0.424" x2="1200.35" y2="2400.76" gradientUnits="userSpaceOnUse">
<stop stop-color="#F9AA4B"/>
<stop offset="1" stop-color="#F7931A"/>
</linearGradient>
<linearGradient id="paint2_linear_179_868" x1="13" y1="1" x2="13" y2="25" gradientUnits="userSpaceOnUse">
<stop stop-color="#F9AA4B"/>
<stop offset="1" stop-color="#F7931A"/>
</linearGradient>
</defs>
</svg>
