<svg width="26" height="26" viewBox="0 0 26 26" fill="none" xmlns="http://www.w3.org/2000/svg">
<g filter="url(#filter0_dii_179_872)">
<rect x="1" y="1" width="24" height="24" rx="12" fill="url(#paint0_linear_179_872)"/>
<path d="M17.2751 10.2682C17.1999 10.336 17.1027 10.3743 17.0015 10.3762H7.38647C7.04507 10.3762 6.87287 9.98616 7.10927 9.75816L8.68847 8.23536C8.76186 8.16448 8.85945 8.12415 8.96147 8.12256H18.6143C18.9587 8.12256 19.1273 8.51616 18.8879 8.74536L17.2751 10.2682Z" fill="url(#paint1_linear_179_872)"/>
<path d="M17.2751 17.7724C17.1995 17.8391 17.1023 17.8764 17.0015 17.8774H7.38647C7.04507 17.8774 6.87287 17.4904 7.10927 17.2618L8.68847 15.7354C8.76218 15.6655 8.85991 15.6266 8.96147 15.6268H18.6143C18.9587 15.6268 19.1273 16.0168 18.8879 16.2448L17.2751 17.7724Z" fill="url(#paint2_linear_179_872)"/>
<path d="M17.2751 11.9818C17.1995 11.9151 17.1023 11.8778 17.0015 11.8768H7.38647C7.04507 11.8768 6.87287 12.2638 7.10927 12.4918L8.68847 14.0188C8.76352 14.0864 8.86044 14.1248 8.96147 14.1268H18.6143C18.9587 14.1268 19.1273 13.7368 18.8879 13.5088L17.2751 11.9818Z" fill="url(#paint3_linear_179_872)"/>
</g>
<defs>
<filter id="filter0_dii_179_872" x="0.625" y="0.625" width="24.75" height="26.625" filterUnits="userSpaceOnUse" color-interpolation-filters="sRGB">
<feFlood flood-opacity="0" result="BackgroundImageFix"/>
<feColorMatrix in="SourceAlpha" type="matrix" values="0 0 0 0 0 0 0 0 0 0 0 0 0 0 0 0 0 0 127 0" result="hardAlpha"/>
<feMorphology radius="0.375" operator="dilate" in="SourceAlpha" result="effect1_dropShadow_179_872"/>
<feOffset/>
<feComposite in2="hardAlpha" operator="out"/>
<feColorMatrix type="matrix" values="0 0 0 0 0.0705882 0 0 0 0 0.0745098 0 0 0 0 0.0823529 0 0 0 0.75 0"/>
<feBlend mode="normal" in2="BackgroundImageFix" result="effect1_dropShadow_179_872"/>
<feBlend mode="normal" in="SourceGraphic" in2="effect1_dropShadow_179_872" result="shape"/>
<feColorMatrix in="SourceAlpha" type="matrix" values="0 0 0 0 0 0 0 0 0 0 0 0 0 0 0 0 0 0 127 0" result="hardAlpha"/>
<feOffset dy="2.25"/>
<feGaussianBlur stdDeviation="1.5"/>
<feComposite in2="hardAlpha" operator="arithmetic" k2="-1" k3="1"/>
<feColorMatrix type="matrix" values="0 0 0 0 1 0 0 0 0 1 0 0 0 0 1 0 0 0 0.25 0"/>
<feBlend mode="overlay" in2="shape" result="effect2_innerShadow_179_872"/>
<feColorMatrix in="SourceAlpha" type="matrix" values="0 0 0 0 0 0 0 0 0 0 0 0 0 0 0 0 0 0 127 0" result="hardAlpha"/>
<feOffset dy="0.375"/>
<feGaussianBlur stdDeviation="0.375"/>
<feComposite in2="hardAlpha" operator="arithmetic" k2="-1" k3="1"/>
<feColorMatrix type="matrix" values="0 0 0 0 1 0 0 0 0 1 0 0 0 0 1 0 0 0 0.45 0"/>
<feBlend mode="overlay" in2="effect2_innerShadow_179_872" result="effect3_innerShadow_179_872"/>
</filter>
<linearGradient id="paint0_linear_179_872" x1="13" y1="1" x2="13" y2="25" gradientUnits="userSpaceOnUse">
<stop stop-color="#1E1F23"/>
<stop offset="1" stop-color="#121315"/>
</linearGradient>
<linearGradient id="paint1_linear_179_872" x1="7.00067" y1="153.437" x2="19.3071" y2="153.411" gradientUnits="userSpaceOnUse">
<stop stop-color="#599DB0"/>
<stop offset="1" stop-color="#47F8C3"/>
</linearGradient>
<linearGradient id="paint2_linear_179_872" x1="7.00067" y1="-11.4469" x2="19.2282" y2="-11.4685" gradientUnits="userSpaceOnUse">
<stop stop-color="#C44FE2"/>
<stop offset="1" stop-color="#73B0D0"/>
</linearGradient>
<linearGradient id="paint3_linear_179_872" x1="7.69127" y1="13.0018" x2="18.5351" y2="13.0018" gradientUnits="userSpaceOnUse">
<stop stop-color="#778CBF"/>
<stop offset="1" stop-color="#5DCDC9"/>
</linearGradient>
</defs>
</svg>
