<svg xmlns="http://www.w3.org/2000/svg" width="20" height="20" viewBox="0 0 20 20" fill="none">
  <path d="M10.0001 1.04169C5.06008 1.04169 1.04175 5.06085 1.04175 10C1.04175 14.9392 5.06008 18.9584 10.0001 18.9584C14.9401 18.9584 18.9584 14.9392 18.9584 10C18.9584 5.06085 14.9401 1.04169 10.0001 1.04169ZM2.29175 10C2.29175 9.11169 2.45007 8.26168 2.7284 7.46668C3.24507 11.225 6.54175 11.5425 6.68425 12.1417C6.84258 12.8167 6.68425 13.0167 6.74258 14.175C6.80092 15.3334 8.4009 15.35 9.01757 16.2667C9.19924 16.5333 9.30427 17.1042 9.25927 17.6708C5.3551 17.2967 2.29175 14 2.29175 10ZM12.0918 17.4125C12.6593 15.635 14.3634 15.0325 14.5367 14.005C14.6759 13.1809 13.5926 12.7592 12.6201 12.6392C11.6567 12.5283 11.7959 11.5192 11.1109 10.8059C10.4259 10.0925 9.97758 10.1333 9.01508 10.2533C8.04258 10.3642 7.22756 10.295 6.95839 9.70253C6.69923 9.11003 7.03257 8.82669 6.32424 8.09252C5.73424 7.48085 6.36757 6.93253 6.68257 6.85836C7.18257 6.73836 8.07173 7.61251 8.59256 7.50584C10.1617 7.18251 8.28174 4.11168 10.6384 3.33918C11.0509 3.20418 11.4367 2.87586 11.6309 2.4692C12.9776 2.76086 14.1892 3.40752 15.1742 4.30252C15.4451 5.07335 15.6334 5.95836 15.4759 6.42753C15.1609 7.40003 14.3701 8.09919 15.2334 9.69085C16.1343 11.3525 16.6901 11.5784 17.0951 11.1217C17.2559 10.94 17.4651 10.8117 17.6734 10.7342C17.3676 13.9317 15.1009 16.5617 12.0918 17.4125Z" fill="#ECF3FF" fill-opacity="0.5"/>
</svg>