<svg width="22" height="22" viewBox="0 0 22 22" fill="none" xmlns="http://www.w3.org/2000/svg">
<g clip-path="url(#clip0_28_870)">
<path d="M1 1H21V7.66797H1V1Z" fill="#FF9933"/>
<path d="M1 7.66797H21V14.332H1V7.66797Z" fill="white"/>
<path d="M1 14.332H21V21H1V14.332Z" fill="#128807"/>
<path d="M10.9999 13.6667C12.4727 13.6667 13.6666 12.4728 13.6666 11C13.6666 9.52723 12.4727 8.33333 10.9999 8.33333C9.52716 8.33333 8.33325 9.52723 8.33325 11C8.33325 12.4728 9.52716 13.6667 10.9999 13.6667Z" fill="#000088"/>
<path d="M11.0001 13.3333C12.2887 13.3333 13.3334 12.2887 13.3334 11C13.3334 9.71132 12.2887 8.66666 11.0001 8.66666C9.71142 8.66666 8.66675 9.71132 8.66675 11C8.66675 12.2887 9.71142 13.3333 11.0001 13.3333Z" fill="white"/>
<path d="M11.0001 11.4667C11.2578 11.4667 11.4668 11.2577 11.4668 11C11.4668 10.7423 11.2578 10.5333 11.0001 10.5333C10.7424 10.5333 10.5334 10.7423 10.5334 11C10.5334 11.2577 10.7424 11.4667 11.0001 11.4667Z" fill="#000088"/>
<path d="M13.2979 11.4243C13.3636 11.4329 13.4238 11.3867 13.4325 11.321C13.4411 11.2552 13.3949 11.195 13.3292 11.1863C13.2635 11.1777 13.2032 11.2239 13.1945 11.2896C13.1859 11.3553 13.2321 11.4156 13.2979 11.4243Z" fill="#000088"/>
<path d="M11.0002 13.3332L11.0802 11.9332L11.0002 11.2665L10.9202 11.9332L11.0002 13.3332Z" fill="#000088"/>
<path d="M13.1098 12.0045C13.1711 12.0298 13.2413 12.0008 13.2666 11.9395C13.292 11.8783 13.2629 11.8081 13.2017 11.7827C13.1405 11.7574 13.0703 11.7865 13.0449 11.8477C13.0195 11.9089 13.0486 11.9791 13.1098 12.0045Z" fill="#000088"/>
<path d="M10.3964 13.2537L10.836 11.9221L10.9313 11.2574L10.6815 11.8807L10.3964 13.2537Z" fill="#000088"/>
<path d="M12.778 12.5163C12.8305 12.5566 12.9059 12.5467 12.9462 12.4941C12.9866 12.4415 12.9766 12.3662 12.9241 12.3259C12.8715 12.2855 12.7962 12.2954 12.7558 12.348C12.7155 12.4006 12.7254 12.4759 12.778 12.5163Z" fill="#000088"/>
<path d="M9.8338 13.0206L10.6031 11.8482L10.8671 11.2308L10.4645 11.7682L9.8338 13.0206Z" fill="#000088"/>
<path d="M12.325 12.9247C12.3654 12.9773 12.4407 12.9872 12.4933 12.9468C12.5459 12.9065 12.5558 12.8312 12.5154 12.7786C12.4751 12.726 12.3998 12.7161 12.3472 12.7564C12.2946 12.7968 12.2847 12.8721 12.325 12.9247Z" fill="#000088"/>
<path d="M9.35059 12.6498L10.3971 11.7164L10.8119 11.1884L10.284 11.6033L9.35059 12.6498Z" fill="#000088"/>
<path d="M11.7812 13.2019C11.8066 13.2632 11.8768 13.2923 11.938 13.2669C11.9992 13.2415 12.0283 13.1713 12.003 13.1101C11.9776 13.0489 11.9074 13.0198 11.8462 13.0452C11.7849 13.0705 11.7559 13.1407 11.7812 13.2019Z" fill="#000088"/>
<path d="M8.97922 12.1666L10.2317 11.5359L10.769 11.1332L10.1517 11.3973L8.97922 12.1666Z" fill="#000088"/>
<path d="M11.1852 13.3291C11.1938 13.3948 11.2541 13.4411 11.3198 13.4324C11.3855 13.4238 11.4318 13.3635 11.4231 13.2978C11.4145 13.2321 11.3542 13.1858 11.2885 13.1945C11.2228 13.2031 11.1765 13.2634 11.1852 13.3291Z" fill="#000088"/>
<path d="M8.74663 11.6038L10.1196 11.3187L10.7429 11.0689L10.0782 11.1642L8.74663 11.6038Z" fill="#000088"/>
<path d="M10.576 13.2976C10.5673 13.3633 10.6136 13.4236 10.6793 13.4322C10.745 13.4409 10.8053 13.3946 10.8139 13.3289C10.8226 13.2632 10.7763 13.2029 10.7106 13.1943C10.6449 13.1856 10.5846 13.2319 10.576 13.2976Z" fill="#000088"/>
<path d="M8.66698 10.9999L10.067 11.0799L10.7336 10.9999L10.067 10.9199L8.66698 10.9999Z" fill="#000088"/>
<path d="M9.99577 13.1094C9.97041 13.1707 9.99949 13.2409 10.0607 13.2662C10.1219 13.2916 10.1921 13.2625 10.2175 13.2013C10.2429 13.14 10.2138 13.0698 10.1526 13.0445C10.0913 13.0191 10.0211 13.0482 9.99577 13.1094Z" fill="#000088"/>
<path d="M8.74672 10.396L10.0783 10.8356L10.743 10.9309L10.1197 10.6811L8.74672 10.396Z" fill="#000088"/>
<path d="M9.48386 12.7777C9.44351 12.8302 9.45343 12.9056 9.50601 12.9459C9.55859 12.9863 9.63392 12.9763 9.67426 12.9238C9.71461 12.8712 9.70469 12.7958 9.65211 12.7555C9.59953 12.7152 9.5242 12.7251 9.48386 12.7777Z" fill="#000088"/>
<path d="M8.97954 9.83336L10.152 10.6026L10.7693 10.8667L10.232 10.4641L8.97954 9.83336Z" fill="#000088"/>
<path d="M9.07535 12.3246C9.02277 12.3649 9.01285 12.4403 9.05319 12.4929C9.09354 12.5454 9.16887 12.5554 9.22145 12.515C9.27403 12.4747 9.28394 12.3993 9.2436 12.3468C9.20325 12.2942 9.12792 12.2843 9.07535 12.3246Z" fill="#000088"/>
<path d="M9.35024 9.3501L10.2836 10.3966L10.8116 10.8115L10.3968 10.2835L9.35024 9.3501Z" fill="#000088"/>
<path d="M8.79778 11.7812C8.73655 11.8066 8.70747 11.8768 8.73284 11.938C8.7582 11.9993 8.82839 12.0283 8.88962 12.003C8.95085 11.9776 8.97993 11.9074 8.95457 11.8462C8.9292 11.785 8.85901 11.7559 8.79778 11.7812Z" fill="#000088"/>
<path d="M9.83318 8.97924L10.4639 10.2317L10.8665 10.769L10.6025 10.1517L9.83318 8.97924Z" fill="#000088"/>
<path d="M8.67099 11.1847C8.60528 11.1934 8.55903 11.2537 8.56768 11.3194C8.57633 11.3851 8.63661 11.4313 8.70232 11.4227C8.76802 11.414 8.81428 11.3537 8.80563 11.288C8.79698 11.2223 8.7367 11.1761 8.67099 11.1847Z" fill="#000088"/>
<path d="M10.3961 8.74616L10.6812 10.1192L10.931 10.7424L10.8358 10.0777L10.3961 8.74616Z" fill="#000088"/>
<path d="M8.70264 10.5756C8.63693 10.5669 8.57665 10.6132 8.568 10.6789C8.55935 10.7446 8.6056 10.8049 8.67131 10.8135C8.73702 10.8222 8.7973 10.7759 8.80595 10.7102C8.8146 10.6445 8.76834 10.5842 8.70264 10.5756Z" fill="#000088"/>
<path d="M11.0003 8.66667L10.9203 10.0667L11.0003 10.7333L11.0803 10.0667L11.0003 8.66667Z" fill="#000088"/>
<path d="M8.89065 9.99539C8.82942 9.97003 8.75922 9.99911 8.73386 10.0603C8.7085 10.1216 8.73757 10.1918 8.7988 10.2171C8.86003 10.2425 8.93023 10.2134 8.95559 10.1522C8.98095 10.091 8.95188 10.0208 8.89065 9.99539Z" fill="#000088"/>
<path d="M11.6041 8.74617L11.1645 10.0778L11.0692 10.7424L11.319 10.1192L11.6041 8.74617Z" fill="#000088"/>
<path d="M9.22253 9.48363C9.16995 9.44328 9.09462 9.4532 9.05428 9.50578C9.01393 9.55836 9.02385 9.63369 9.07643 9.67403C9.12901 9.71438 9.20434 9.70446 9.24468 9.65188C9.28503 9.5993 9.27511 9.52397 9.22253 9.48363Z" fill="#000088"/>
<path d="M12.1667 8.97928L11.3974 10.1517L11.1334 10.7691L11.536 10.2317L12.1667 8.97928Z" fill="#000088"/>
<path d="M9.67546 9.07522C9.63511 9.02264 9.55978 9.01273 9.50721 9.05307C9.45463 9.09342 9.44471 9.16875 9.48505 9.22133C9.5254 9.2739 9.60073 9.28382 9.65331 9.24348C9.70589 9.20313 9.7158 9.1278 9.67546 9.07522Z" fill="#000088"/>
<path d="M12.6501 9.35009L11.6036 10.2835L11.1888 10.8114L11.7168 10.3966L12.6501 9.35009Z" fill="#000088"/>
<path d="M10.2198 8.79793C10.1944 8.7367 10.1242 8.70763 10.063 8.73299C10.0017 8.75835 9.97266 8.82855 9.99802 8.88978C10.0234 8.951 10.0936 8.98008 10.1548 8.95472C10.216 8.92936 10.2451 8.85916 10.2198 8.79793Z" fill="#000088"/>
<path d="M13.0218 9.83331L11.7693 10.464L11.232 10.8666L11.8493 10.6026L13.0218 9.83331Z" fill="#000088"/>
<path d="M10.8158 8.67075C10.8071 8.60504 10.7469 8.55878 10.6812 8.56744C10.6154 8.57609 10.5692 8.63636 10.5778 8.70207C10.5865 8.76778 10.6468 8.81403 10.7125 8.80538C10.7782 8.79673 10.8244 8.73645 10.8158 8.67075Z" fill="#000088"/>
<path d="M13.2543 10.3961L11.8813 10.6811L11.2581 10.931L11.9228 10.8357L13.2543 10.3961Z" fill="#000088"/>
<path d="M11.4252 8.70232C11.4339 8.63661 11.3876 8.57633 11.3219 8.56768C11.2562 8.55903 11.1959 8.60528 11.1873 8.67099C11.1786 8.7367 11.2249 8.79698 11.2906 8.80563C11.3563 8.81428 11.4166 8.76802 11.4252 8.70232Z" fill="#000088"/>
<path d="M13.3342 11L11.9342 10.92L11.2676 11L11.9342 11.08L13.3342 11Z" fill="#000088"/>
<path d="M12.0052 8.89045C12.0306 8.82922 12.0015 8.75902 11.9403 8.73366C11.879 8.7083 11.8088 8.73737 11.7835 8.7986C11.7581 8.85983 11.7872 8.93003 11.8484 8.95539C11.9096 8.98075 11.9798 8.95168 12.0052 8.89045Z" fill="#000088"/>
<path d="M13.2543 11.6039L11.9227 11.1643L11.258 11.069L11.8813 11.3188L13.2543 11.6039Z" fill="#000088"/>
<path d="M12.5166 9.22236C12.557 9.16978 12.5471 9.09445 12.4945 9.05411C12.4419 9.01376 12.3666 9.02368 12.3262 9.07626C12.2859 9.12884 12.2958 9.20417 12.3484 9.24451C12.401 9.28486 12.4763 9.27494 12.5166 9.22236Z" fill="#000088"/>
<path d="M13.0209 12.1667L11.8485 11.3974L11.2312 11.1333L11.7685 11.5359L13.0209 12.1667Z" fill="#000088"/>
<path d="M12.9249 9.67538C12.9775 9.63504 12.9874 9.55971 12.947 9.50713C12.9067 9.45455 12.8314 9.44463 12.7788 9.48498C12.7262 9.52532 12.7163 9.60065 12.7566 9.65323C12.797 9.70581 12.8723 9.71573 12.9249 9.67538Z" fill="#000088"/>
<path d="M12.65 12.6499L11.7166 11.6034L11.1886 11.1885L11.6035 11.7165L12.65 12.6499Z" fill="#000088"/>
<path d="M13.2027 10.2188C13.2639 10.1935 13.293 10.1233 13.2677 10.0621C13.2423 10.0008 13.1721 9.97175 13.1109 9.99711C13.0496 10.0225 13.0206 10.0927 13.0459 10.1539C13.0713 10.2151 13.1415 10.2442 13.2027 10.2188Z" fill="#000088"/>
<path d="M12.1673 13.0208L11.5366 11.7684L11.134 11.2311L11.398 11.8484L12.1673 13.0208Z" fill="#000088"/>
<path d="M13.3297 10.8154C13.3955 10.8067 13.4417 10.7465 13.4331 10.6808C13.4244 10.615 13.3641 10.5688 13.2984 10.5774C13.2327 10.5861 13.1865 10.6464 13.1951 10.7121C13.2038 10.7778 13.264 10.824 13.3297 10.8154Z" fill="#000088"/>
<path d="M11.6046 13.254L11.3195 11.881L11.0697 11.2577L11.165 11.9224L11.6046 13.254Z" fill="#000088"/>
</g>
<rect x="1" y="1" width="20" height="20" rx="10" stroke="#ECF3FF" stroke-opacity="0.1"/>
<defs>
<clipPath id="clip0_28_870">
<rect x="1" y="1" width="20" height="20" rx="10" fill="white"/>
</clipPath>
</defs>
</svg>
