<svg width="22" height="22" viewBox="0 0 22 22" fill="none" xmlns="http://www.w3.org/2000/svg">
<g clip-path="url(#clip0_28_3118)">
<path d="M9 1H21V21H8.99609L9 1Z" fill="#FF0000"/>
<path d="M1 1H9V21H0.996094L1 1Z" fill="#006600"/>
<path fill-rule="evenodd" clip-rule="evenodd" d="M12.4766 13.7578C11.1328 13.7188 4.97656 9.875 4.9375 9.26172L5.27344 8.69531C5.88281 9.58203 12.1797 13.3203 12.7969 13.1875L12.4766 13.7578Z" fill="#FFFF00" stroke="black" stroke-width="0.0273438" stroke-linecap="round" stroke-linejoin="round"/>
<path fill-rule="evenodd" clip-rule="evenodd" d="M5.20319 8.61719C5.08209 8.94141 6.80865 10.0078 8.88678 11.2734C10.9649 12.5352 12.754 13.3164 12.8907 13.207L12.9493 13.0938C12.9258 13.1328 12.8633 13.1445 12.7696 13.1172C12.2071 12.9531 10.7422 12.2813 8.92975 11.1836C7.11725 10.0859 5.53912 9.07031 5.29694 8.64063C5.27698 8.60069 5.26756 8.55632 5.26959 8.51172H5.26178L5.211 8.60156L5.20319 8.61719ZM12.5079 13.7734C12.4844 13.8164 12.4415 13.8164 12.3633 13.8125C11.8594 13.7539 10.3321 13.0117 8.53522 11.9336C6.43365 10.6758 4.69928 9.53125 4.89069 9.23438L4.94147 9.14062L4.94928 9.14453C4.78131 9.65234 8.37116 11.7031 8.58209 11.8359C10.6563 13.125 12.4102 13.875 12.5665 13.6797L12.5079 13.7734Z" fill="#FFFF00" stroke="black" stroke-width="0.0273438" stroke-linecap="round" stroke-linejoin="round"/>
<path fill-rule="evenodd" clip-rule="evenodd" d="M9.00781 9.63281C10.3477 9.62109 12.0078 9.44922 12.9609 9.07031L12.7578 8.73437C12.1914 9.04687 10.5273 9.25391 8.99609 9.28125C7.18359 9.26562 5.90625 9.09766 5.26562 8.66797L5.07031 9.02344C6.25 9.51953 7.45313 9.62891 9.00781 9.63281Z" fill="#FFFF00" stroke="black" stroke-width="0.0273438" stroke-linecap="round" stroke-linejoin="round"/>
<path fill-rule="evenodd" clip-rule="evenodd" d="M13.0195 9.07813C12.9844 9.12891 12.3633 9.34375 11.4453 9.5C10.6359 9.62139 9.81847 9.68146 9 9.67969C8.21629 9.68322 7.43325 9.63363 6.65625 9.53125C5.69922 9.37891 5.19922 9.16797 5.01563 9.09375L5.0625 9.00391C5.58196 9.20865 6.1233 9.35283 6.67578 9.43359C7.44635 9.53438 8.22288 9.58267 9 9.57813C9.81194 9.57863 10.6228 9.51856 11.4258 9.39844C12.3633 9.24609 12.8789 9.05078 12.9492 8.96094L13.0195 9.07813ZM12.8359 8.73438C12.7344 8.8125 12.2266 8.99609 11.3359 9.13672C10.5662 9.24722 9.78939 9.30205 9.01172 9.30078C8.26182 9.30647 7.51249 9.25817 6.76953 9.15625C5.85937 9.03906 5.37891 8.82422 5.20703 8.76172L5.25781 8.67187C5.39062 8.74219 5.85937 8.92969 6.78125 9.0625C7.5208 9.15835 8.266 9.20403 9.01172 9.19922C9.7829 9.20028 10.5531 9.14545 11.3164 9.03516C12.2148 8.91016 12.6992 8.68359 12.7734 8.625L12.8359 8.73438ZM4.59375 11.25C5.42187 11.6953 7.25391 11.9219 8.99219 11.9375C10.5742 11.9375 12.6367 11.6914 13.4062 11.2813L13.3828 10.8359C13.1445 11.2148 10.9375 11.5781 8.97656 11.5625C7.01562 11.5469 5.19531 11.2422 4.58984 10.8516V11.25" fill="#FFFF00"/>
<path d="M4.59375 11.25C5.42187 11.6953 7.25391 11.9219 8.99219 11.9375C10.5742 11.9375 12.6367 11.6914 13.4062 11.2813L13.3828 10.8359C13.1445 11.2148 10.9375 11.5781 8.97656 11.5625C7.01562 11.5469 5.19531 11.2422 4.58984 10.8516V11.25M13.0195 9.07813C12.9844 9.12891 12.3633 9.34375 11.4453 9.5C10.6359 9.62139 9.81847 9.68146 9 9.67969C8.21629 9.68322 7.43325 9.63363 6.65625 9.53125C5.69922 9.37891 5.19922 9.16797 5.01563 9.09375L5.0625 9.00391C5.58196 9.20865 6.1233 9.35283 6.67578 9.43359C7.44635 9.53438 8.22288 9.58267 9 9.57813C9.81194 9.57863 10.6228 9.51856 11.4258 9.39844C12.3633 9.24609 12.8789 9.05078 12.9492 8.96094L13.0195 9.07813ZM12.8359 8.73438C12.7344 8.8125 12.2266 8.99609 11.3359 9.13672C10.5662 9.24722 9.78939 9.30205 9.01172 9.30078C8.26182 9.30647 7.51249 9.25817 6.76953 9.15625C5.85937 9.03906 5.37891 8.82422 5.20703 8.76172L5.25781 8.67187C5.39062 8.74219 5.85937 8.92969 6.78125 9.0625C7.5208 9.15835 8.266 9.20403 9.01172 9.19922C9.7829 9.20028 10.5531 9.14545 11.3164 9.03516C12.2148 8.91016 12.6992 8.68359 12.7734 8.625L12.8359 8.73438Z" stroke="black" stroke-width="0.0273438" stroke-linecap="round" stroke-linejoin="round"/>
<path fill-rule="evenodd" clip-rule="evenodd" d="M13.4492 11.1875V11.293C13.332 11.4336 12.6055 11.6445 11.6953 11.7891C10.7938 11.92 9.88364 11.9827 8.97266 11.9766C7.90234 11.9766 7.05078 11.8984 6.38672 11.7969C5.74956 11.7245 5.1268 11.5572 4.53906 11.3008V11.1758C4.94531 11.4453 6.03516 11.6406 6.40234 11.6992C7.05859 11.8008 7.90625 11.875 8.97266 11.875C10.0938 11.875 10.9922 11.7969 11.6797 11.6914C12.3359 11.5977 13.2656 11.3516 13.4492 11.1875ZM13.4492 10.8086V10.918C13.332 11.0547 12.6055 11.2656 11.6953 11.4102C10.7938 11.5411 9.88364 11.6038 8.97266 11.5977C7.90234 11.5977 7.05078 11.5195 6.39062 11.4219C5.75196 11.3485 5.12786 11.1799 4.53906 10.9219V10.7969C4.94531 11.0664 6.03516 11.2656 6.40234 11.3203C7.0625 11.4219 7.91016 11.5 8.97266 11.5C10.0938 11.5 10.9922 11.4219 11.6797 11.3125C12.3359 11.2187 13.2656 10.9727 13.4492 10.8086ZM8.98828 13.6797C7.08984 13.668 5.46094 13.1641 5.11719 13.0781L5.36719 13.4688C5.97266 13.7266 7.5625 14.1094 9.00781 14.0664C10.4531 14.0234 11.7148 13.9102 12.6016 13.4805L12.8594 13.0703C12.2539 13.3555 10.1914 13.6797 8.99219 13.6797" fill="#FFFF00"/>
<path d="M8.98828 13.6797C7.08984 13.668 5.46094 13.1641 5.11719 13.0781L5.36719 13.4688C5.97266 13.7266 7.5625 14.1094 9.00781 14.0664C10.4531 14.0234 11.7148 13.9102 12.6016 13.4805L12.8594 13.0703C12.2539 13.3555 10.1914 13.6797 8.99219 13.6797M13.4492 11.1875V11.293C13.332 11.4336 12.6055 11.6445 11.6953 11.7891C10.7938 11.92 9.88364 11.9827 8.97266 11.9766C7.90234 11.9766 7.05078 11.8984 6.38672 11.7969C5.74956 11.7245 5.1268 11.5572 4.53906 11.3008V11.1758C4.94531 11.4453 6.03516 11.6406 6.40234 11.6992C7.05859 11.8008 7.90625 11.875 8.97266 11.875C10.0938 11.875 10.9922 11.7969 11.6797 11.6914C12.3359 11.5977 13.2656 11.3516 13.4492 11.1875ZM13.4492 10.8086V10.918C13.332 11.0547 12.6055 11.2656 11.6953 11.4102C10.7938 11.5411 9.88364 11.6038 8.97266 11.5977C7.90234 11.5977 7.05078 11.5195 6.39063 11.4219C5.75196 11.3485 5.12786 11.1799 4.53906 10.9219V10.7969C4.94531 11.0664 6.03516 11.2656 6.40234 11.3203C7.0625 11.4219 7.91016 11.5 8.97266 11.5C10.0938 11.5 10.9922 11.4219 11.6797 11.3125C12.3359 11.2187 13.2656 10.9727 13.4492 10.8086Z" stroke="black" stroke-width="0.0273438" stroke-linecap="round" stroke-linejoin="round"/>
<path fill-rule="evenodd" clip-rule="evenodd" d="M12.6992 13.3867C12.6612 13.4447 12.6221 13.502 12.582 13.5586C12.1388 13.7056 11.6859 13.8218 11.2266 13.9062C10.4895 14.0419 9.74161 14.1099 8.99219 14.1094C7.30859 14.0859 5.92969 13.7578 5.28125 13.4766L5.22656 13.3867L5.23828 13.3711L5.32422 13.4062C6.51023 13.7993 7.7506 14.0036 9 14.0117C9.78125 14.0156 10.5625 13.9219 11.1914 13.8125C12.1602 13.6172 12.5508 13.4727 12.6719 13.4062L12.6992 13.3867ZM12.9219 13.0195H12.9258C12.8975 13.0692 12.8688 13.1187 12.8398 13.168C12.6172 13.2461 12.0078 13.4258 11.1211 13.5508C10.5352 13.6289 10.1719 13.707 9.01172 13.7305C7.68245 13.7161 6.36146 13.519 5.08594 13.1445L5.03906 13.0469C6.33465 13.4024 7.66865 13.5992 9.01172 13.6328C10.0742 13.6094 10.5273 13.5312 11.1055 13.4492C12.1406 13.293 12.6602 13.1211 12.8164 13.0703C12.8152 13.0677 12.8139 13.0651 12.8125 13.0625L12.9219 13.0195Z" fill="#FFFF00" stroke="black" stroke-width="0.0234375" stroke-linecap="round" stroke-linejoin="round"/>
<path fill-rule="evenodd" clip-rule="evenodd" d="M12.9453 10.8984C12.9531 12.1484 12.3125 13.2734 11.7969 13.7695C11.0395 14.5062 10.0291 14.9254 8.97266 14.9414C7.71094 14.9648 6.52344 14.1406 6.20312 13.7813C5.57812 13.0742 5.07031 12.1797 5.05469 10.9688C5.13281 9.60156 5.66797 8.65234 6.44531 8C7.19751 7.38129 8.14326 7.04669 9.11719 7.05469C10.1094 7.08203 11.2734 7.57031 12.0742 8.53906C12.5977 9.17188 12.8281 9.85937 12.9453 10.9023V10.8984ZM8.98437 6.61719C11.4062 6.61719 13.3984 8.58984 13.3984 11.0039C13.3912 12.1698 12.923 13.2856 12.096 14.1075C11.2689 14.9294 10.1503 15.3906 8.98437 15.3906C6.5625 15.3906 4.58594 13.4219 4.58594 11.0039C4.58594 8.58594 6.5625 6.61719 8.98437 6.61719Z" fill="#FFFF00" stroke="black" stroke-width="0.0273438" stroke-linecap="round" stroke-linejoin="round"/>
<path fill-rule="evenodd" clip-rule="evenodd" d="M8.99609 6.60156C11.418 6.60156 13.3945 8.58203 13.3945 11.0039C13.3945 13.4258 11.418 15.4062 8.99609 15.4062C7.8288 15.4032 6.71025 14.9378 5.88521 14.112C5.06017 13.2863 4.59581 12.1673 4.59375 11C4.59684 9.83338 5.06165 8.71542 5.88658 7.89049C6.71151 7.06556 7.82947 6.60075 8.99609 6.59766V6.60156ZM4.69141 11.0039C4.69141 13.3711 6.63672 15.3086 8.99609 15.3086C11.3555 15.3086 13.2969 13.3711 13.2969 11.0039C13.2969 8.63672 11.3555 6.70312 8.99609 6.70312C7.85636 6.70724 6.76442 7.16155 5.95814 7.9671C5.15186 8.77265 4.69655 9.86418 4.69141 11.0039Z" fill="#FFFF00" stroke="black" stroke-width="0.0273438" stroke-linecap="round" stroke-linejoin="round"/>
<path fill-rule="evenodd" clip-rule="evenodd" d="M9 6.96875C11.207 6.96875 13.0273 8.78516 13.0273 11C13.0273 13.2188 11.207 15.0312 9 15.0312C7.93144 15.0282 6.90746 14.6026 6.1515 13.8473C5.39554 13.0921 4.96897 12.0686 4.96484 11C4.96484 8.78516 6.78516 6.96875 8.99609 6.96875H9ZM5.0625 11C5.0625 13.1641 6.83984 14.9336 9 14.9336C11.1562 14.9336 12.9336 13.1641 12.9336 11C12.9336 8.83594 11.1562 7.06641 8.99609 7.06641C6.83594 7.06641 5.0625 8.83594 5.0625 11Z" fill="#FFFF00" stroke="black" stroke-width="0.0273438" stroke-linecap="round" stroke-linejoin="round"/>
<path fill-rule="evenodd" clip-rule="evenodd" d="M9.17578 6.58594H8.79688V15.4297H9.17578V6.58594Z" fill="#FFFF00" stroke="black" stroke-width="0.0273438" stroke-linecap="round" stroke-linejoin="round"/>
<path fill-rule="evenodd" clip-rule="evenodd" d="M9.13672 6.53516H9.23438V15.4805H9.13672V6.53516ZM8.76172 6.53516H8.85938V15.4805H8.76172V6.53516Z" fill="#FFFF00" stroke="black" stroke-width="0.0273438" stroke-linecap="round" stroke-linejoin="round"/>
<path fill-rule="evenodd" clip-rule="evenodd" d="M13.3984 11.1758V10.8438L13.1328 10.5977L11.6211 10.1953L9.44141 9.97266L6.82422 10.1055L4.95312 10.5508L4.57812 10.832V11.1563L5.53125 10.7266L7.79688 10.375H9.97656L11.5781 10.5508L12.6875 10.8203L13.3984 11.1758Z" fill="#FFFF00" stroke="black" stroke-width="0.0273438" stroke-linecap="round" stroke-linejoin="round"/>
<path fill-rule="evenodd" clip-rule="evenodd" d="M8.99609 10.3242C9.95113 10.3203 10.9045 10.4053 11.8438 10.5781C12.668 10.7422 13.25 10.9492 13.4453 11.1797V11.2969C13.2109 11.0078 12.4297 10.7969 11.8242 10.6719C11.0312 10.5195 10.0273 10.4219 8.99609 10.4219C7.90234 10.4219 6.88672 10.5273 6.10547 10.6797C5.48047 10.8047 4.64453 11.0508 4.53906 11.2969V11.1797C4.59766 11.0078 5.21875 10.7539 6.09375 10.5781C7.05133 10.4044 8.0229 10.3194 8.99609 10.3242ZM8.99609 9.94532C9.95242 9.94162 10.907 10.0266 11.8477 10.1992C12.668 10.3633 13.2539 10.5703 13.4492 10.8047V10.918C13.2109 10.6289 12.4258 10.418 11.8242 10.2969C11.0312 10.1406 10.0273 10.043 8.99609 10.043C8.02927 10.04 7.06423 10.1263 6.11328 10.3008C5.50781 10.418 4.63672 10.6758 4.53906 10.918V10.8008C4.59766 10.6328 5.23437 10.3711 6.09375 10.2031C7.05121 10.0281 8.02277 9.94179 8.99609 9.94532ZM8.97656 8.01953C10.6133 8.01172 12.043 8.25 12.6953 8.58594L12.9336 8.9961C12.3672 8.69141 10.8242 8.3711 8.97656 8.42188C7.47266 8.42969 5.86719 8.58594 5.05859 9.01563L5.34375 8.53907C6.00781 8.19532 7.57031 8.02344 8.97656 8.01953Z" fill="#FFFF00" stroke="black" stroke-width="0.0273438" stroke-linecap="round" stroke-linejoin="round"/>
<path fill-rule="evenodd" clip-rule="evenodd" d="M8.99609 8.35937C9.93359 8.35937 10.832 8.41015 11.5508 8.53906C12.2188 8.66406 12.8594 8.85156 12.9492 8.95312L13.0195 9.07812C12.7969 8.93359 12.2461 8.76952 11.5352 8.63671C10.6957 8.50296 9.84599 8.44413 8.99609 8.46093C7.94141 8.46093 7.12109 8.51171 6.41797 8.63671C5.67578 8.77343 5.16016 8.97265 5.03125 9.0664L5.10156 8.93749C5.34766 8.80859 5.74219 8.65624 6.40234 8.53906C7.12891 8.40624 7.95312 8.36718 8.99609 8.35937ZM8.99609 7.98437C9.8211 7.97139 10.6457 8.02889 11.4609 8.15624C12.0039 8.26171 12.5391 8.42577 12.7383 8.57031L12.8398 8.73437C12.6641 8.53906 12.0039 8.35546 11.418 8.2539C10.7383 8.13671 9.89062 8.08984 8.99609 8.08202C8.05859 8.08202 7.19141 8.14062 6.51953 8.26171C5.87891 8.38671 5.46484 8.53124 5.28906 8.64452L5.37891 8.5039C5.62109 8.3789 6.01172 8.26171 6.50391 8.16406C7.17969 8.04296 8.05469 7.98437 8.99609 7.98437ZM11.1836 12.832C10.4614 12.7075 9.72883 12.6526 8.99609 12.668C6.26562 12.6992 5.38672 13.2266 5.27734 13.3867L5.07422 13.0547C5.76563 12.5508 7.25 12.2695 9.00781 12.2969C9.91797 12.3125 10.7031 12.375 11.3672 12.5L11.1797 12.832" fill="#FFFF00"/>
<path d="M11.1836 12.832C10.4614 12.7075 9.72883 12.6526 8.99609 12.668C6.26562 12.6992 5.38672 13.2266 5.27734 13.3867L5.07422 13.0547C5.76563 12.5508 7.25 12.2695 9.00781 12.2969C9.91797 12.3125 10.7031 12.375 11.3672 12.5L11.1797 12.832M8.99609 8.35937C9.93359 8.35937 10.832 8.41015 11.5508 8.53906C12.2188 8.66406 12.8594 8.85156 12.9492 8.95312L13.0195 9.07812C12.7969 8.93359 12.2461 8.76952 11.5352 8.63671C10.6957 8.50296 9.84599 8.44413 8.99609 8.46093C7.94141 8.46093 7.12109 8.51171 6.41797 8.63671C5.67578 8.77343 5.16016 8.97265 5.03125 9.0664L5.10156 8.93749C5.34766 8.80859 5.74219 8.65624 6.40234 8.53906C7.12891 8.40624 7.95312 8.36718 8.99609 8.35937ZM8.99609 7.98437C9.8211 7.97139 10.6457 8.02889 11.4609 8.15624C12.0039 8.26171 12.5391 8.42577 12.7383 8.57031L12.8398 8.73437C12.6641 8.53906 12.0039 8.35546 11.418 8.2539C10.7383 8.13671 9.89062 8.08984 8.99609 8.08202C8.05859 8.08202 7.19141 8.14062 6.51953 8.26171C5.87891 8.38671 5.46484 8.53124 5.28906 8.64452L5.37891 8.5039C5.62109 8.3789 6.01172 8.26171 6.50391 8.16406C7.17969 8.04296 8.05469 7.98437 8.99609 7.98437Z" stroke="black" stroke-width="0.0273438" stroke-linecap="round" stroke-linejoin="round"/>
<path fill-rule="evenodd" clip-rule="evenodd" d="M8.98047 12.6211C9.73828 12.6328 10.4844 12.6602 11.207 12.7969L11.1523 12.8906C10.4365 12.767 9.71069 12.7108 8.98437 12.7227C7.97656 12.7149 6.95312 12.8086 6.07031 13.0625C5.78906 13.1406 5.32812 13.3203 5.27734 13.4688L5.22656 13.3828C5.24219 13.2969 5.52344 13.1133 6.04687 12.9688C7.0625 12.6758 8.01172 12.6289 8.97656 12.6172L8.98047 12.6211ZM9.01562 12.2383C9.81571 12.2375 10.6143 12.3068 11.4023 12.4453L11.3477 12.543C10.5797 12.4025 9.80022 12.3345 9.01953 12.3399C8.00781 12.3399 6.9375 12.4141 5.96094 12.6953C5.64844 12.7891 5.10156 12.9844 5.08594 13.1406L5.03516 13.0508C5.04688 12.9102 5.51562 12.7227 5.94141 12.5977C6.94441 12.3353 7.97915 12.2144 9.01562 12.2383Z" fill="#FFFF00" stroke="black" stroke-width="0.0234375" stroke-linecap="round" stroke-linejoin="round"/>
<path fill-rule="evenodd" clip-rule="evenodd" d="M12.8906 13.1055L12.5625 13.6133L11.6211 12.7773L9.17578 11.1367L6.42188 9.62109L4.98828 9.13281L5.29297 8.56641L5.39844 8.51172L6.28906 8.73437L9.21875 10.2461L10.9102 11.3125L12.3281 12.3281L12.9062 12.9961L12.8906 13.1055Z" fill="#FFFF00" stroke="black" stroke-width="0.0273438" stroke-linecap="round" stroke-linejoin="round"/>
<path fill-rule="evenodd" clip-rule="evenodd" d="M4.9375 9.14453C5.19141 8.97656 7.03516 9.79688 8.96094 10.9609C10.8867 12.1289 12.7266 13.4453 12.5625 13.6953L12.5078 13.7773L12.4805 13.7969C12.4883 13.7969 12.5156 13.7578 12.4805 13.668C12.3945 13.3984 11.0937 12.3594 8.92578 11.0508C6.81641 9.79297 5.05859 9.03516 4.88281 9.25391L4.9375 9.14453ZM12.957 13.0977C13.1133 12.7852 11.4062 11.4961 9.28516 10.2422C7.11719 9.01172 5.55078 8.28906 5.26562 8.50391L5.20312 8.6211C5.20312 8.625 5.20312 8.61328 5.21875 8.60156C5.26953 8.5586 5.35547 8.5625 5.39453 8.5625C5.88672 8.56641 7.29297 9.21094 9.26172 10.3438C10.125 10.8438 12.9102 12.6328 12.8984 13.1328C12.8984 13.1758 12.9023 13.1836 12.8867 13.207L12.957 13.0977Z" fill="#FFFF00" stroke="black" stroke-width="0.0273438" stroke-linecap="round" stroke-linejoin="round"/>
<path d="M6.35864 11.4872C6.3593 11.8322 6.42838 12.1736 6.56189 12.4917C6.6954 12.8099 6.89067 13.0983 7.13642 13.3405C7.37917 13.587 7.6683 13.783 7.98715 13.9173C8.30599 14.0515 8.64825 14.1213 8.9942 14.1227C9.69436 14.1227 10.3658 13.8445 10.8609 13.3494C11.1058 13.1059 11.3001 12.8164 11.4328 12.4976C11.5656 12.1788 11.634 11.8369 11.6342 11.4916V7.9716L6.35864 7.96271V11.4872Z" fill="white" stroke="black" stroke-width="0.0311112"/>
<path d="M6.46533 11.4916C6.46627 11.8226 6.53273 12.15 6.66089 12.4552C6.78904 12.7603 6.97635 13.037 7.212 13.2694C7.68518 13.7451 8.32774 14.0136 8.99867 14.0161C9.66843 14.0164 10.311 13.7511 10.7853 13.2783C11.0202 13.0456 11.2067 12.7687 11.3341 12.4635C11.4614 12.1584 11.5272 11.8311 11.5276 11.5005V8.07828H6.46533V11.4916ZM10.5098 9.10495V11.2783L10.5053 11.505C10.5068 11.7035 10.4682 11.9003 10.3919 12.0836C10.3155 12.2669 10.2029 12.4329 10.0609 12.5716C9.77826 12.8552 9.39462 13.0151 8.99423 13.0161C8.57645 13.0161 8.20756 12.8383 7.932 12.5627C7.64839 12.2801 7.48854 11.8965 7.48756 11.4961V9.09606L10.5098 9.10495Z" fill="#FF0000" stroke="black" stroke-width="0.0222223"/>
<path d="M6.78491 8.97153C6.78936 8.72709 6.96269 8.66931 6.96269 8.66931C6.96713 8.66931 7.1538 8.73153 7.1538 8.97598L6.78491 8.97153Z" fill="#FFFF00"/>
<path d="M6.63386 8.67376L6.60274 8.95376H6.78941C6.78941 8.72264 6.96719 8.68709 6.96719 8.68709C6.97163 8.68709 7.14497 8.73598 7.14941 8.95376H7.33608L7.30052 8.66931L6.63386 8.67376ZM6.58941 8.9582H7.34497C7.3583 8.9582 7.37163 8.97153 7.37163 8.98931C7.37163 9.01153 7.3583 9.02487 7.34497 9.02487H6.58941C6.57608 9.02487 6.56274 9.01153 6.56274 8.98931C6.56274 8.97153 6.57608 8.9582 6.59386 8.9582H6.58941Z" fill="#FFFF00" stroke="black" stroke-width="0.0222223"/>
<path d="M6.86501 8.95379C6.86501 8.80712 6.96723 8.76712 6.96723 8.76712C6.96723 8.76712 7.06946 8.81157 7.06946 8.95379H6.86501ZM6.60723 8.55379H7.33168C7.34501 8.55379 7.35835 8.57156 7.35835 8.58934C7.35835 8.60268 7.34501 8.61601 7.33168 8.61601H6.60723C6.5939 8.61601 6.58057 8.60268 6.58057 8.5849C6.58057 8.57156 6.5939 8.55823 6.60723 8.55823V8.55379ZM6.62501 8.62045H7.30946C7.32279 8.62045 7.33612 8.63379 7.33612 8.65156C7.33612 8.66934 7.32279 8.68268 7.30946 8.68268H6.62057C6.60279 8.68268 6.5939 8.66934 6.5939 8.65156C6.5939 8.63379 6.60279 8.62045 6.62057 8.62045H6.62501ZM6.84723 8.14934H6.90057V8.1849H6.94057V8.14934H6.99834V8.18934H7.03834V8.1449H7.09168V8.23379C7.09168 8.25156 7.08279 8.26045 7.06946 8.26045H6.8739C6.86057 8.26045 6.84723 8.25156 6.84723 8.23823V8.14934ZM7.05168 8.26934L7.06501 8.55379H6.8739L6.88723 8.2649H7.05168" fill="#FFFF00"/>
<path d="M7.05168 8.26934L7.06501 8.55379H6.8739L6.88723 8.2649H7.05168M6.86501 8.95379C6.86501 8.80712 6.96723 8.76712 6.96723 8.76712C6.96723 8.76712 7.06946 8.81157 7.06946 8.95379H6.86501ZM6.60723 8.55379H7.33168C7.34501 8.55379 7.35835 8.57156 7.35835 8.58934C7.35835 8.60268 7.34501 8.61601 7.33168 8.61601H6.60723C6.5939 8.61601 6.58057 8.60268 6.58057 8.5849C6.58057 8.57156 6.5939 8.55823 6.60723 8.55823V8.55379ZM6.62501 8.62045H7.30946C7.32279 8.62045 7.33612 8.63379 7.33612 8.65156C7.33612 8.66934 7.32279 8.68268 7.30946 8.68268H6.62057C6.60279 8.68268 6.5939 8.66934 6.5939 8.65156C6.5939 8.63379 6.60279 8.62045 6.62057 8.62045H6.62501ZM6.84723 8.14934H6.90057V8.1849H6.94057V8.14934H6.99834V8.18934H7.03834V8.1449H7.09168V8.23379C7.09168 8.25156 7.08279 8.26045 7.06946 8.26045H6.8739C6.86057 8.26045 6.84723 8.25156 6.84723 8.23823V8.14934Z" stroke="black" stroke-width="0.0222223"/>
<path d="M6.8206 8.40265V8.55376H6.64282V8.40265H6.8206Z" fill="#FFFF00" stroke="black" stroke-width="0.0222223"/>
<path d="M7.29179 8.40265V8.55376H7.11401V8.40265H7.29179Z" fill="#FFFF00" stroke="black" stroke-width="0.0222223"/>
<path d="M6.61157 8.28708H6.66491V8.33152H6.70491V8.28708H6.75824V8.33152H6.79824V8.28708H6.85157V8.37597C6.85157 8.39375 6.84268 8.40263 6.82935 8.40263H6.63824C6.63117 8.40263 6.62438 8.39983 6.61938 8.39482C6.61438 8.38982 6.61157 8.38304 6.61157 8.37597V8.28708Z" fill="#FFFF00" stroke="black" stroke-width="0.0222223"/>
<path d="M7.08276 8.28708H7.1361V8.33152H7.1761V8.28708H7.22943V8.33152H7.26943V8.28708H7.32276V8.37597C7.32276 8.39375 7.31387 8.40263 7.30054 8.40263H7.10943C7.10236 8.40263 7.09558 8.39983 7.09057 8.39482C7.08557 8.38982 7.08276 8.38304 7.08276 8.37597V8.28708Z" fill="#FFFF00" stroke="black" stroke-width="0.0222223"/>
<path d="M6.94946 8.3582C6.94946 8.33153 6.98946 8.33153 6.98946 8.3582V8.42931H6.94946V8.3582Z" fill="#000001"/>
<path d="M6.71387 8.45597C6.71387 8.42931 6.74942 8.42931 6.74942 8.45597V8.50931H6.71387V8.45597Z" fill="#000001"/>
<path d="M7.18506 8.45597C7.18506 8.42931 7.22061 8.42931 7.22061 8.45597V8.50931H7.18506V8.45597Z" fill="#000001"/>
<path d="M6.78491 11.0293C6.78936 10.7849 6.96269 10.7271 6.96269 10.7271C6.96713 10.7271 7.1538 10.7893 7.1538 11.0337L6.78491 11.0293Z" fill="#FFFF00"/>
<path d="M6.63386 10.7315L6.60274 11.0115H6.78941C6.78941 10.7804 6.96719 10.7449 6.96719 10.7449C6.97163 10.7449 7.14497 10.7937 7.14941 11.0115H7.33608L7.30052 10.7271L6.63386 10.7315ZM6.58941 11.016H7.34497C7.3583 11.016 7.37163 11.0293 7.37163 11.0471C7.37163 11.0693 7.3583 11.0826 7.34497 11.0826H6.58941C6.57608 11.0826 6.56274 11.0693 6.56274 11.0471C6.56274 11.0293 6.57608 11.016 6.59386 11.016H6.58941Z" fill="#FFFF00" stroke="black" stroke-width="0.0222223"/>
<path d="M6.86501 11.0116C6.86501 10.8649 6.96723 10.8249 6.96723 10.8249C6.96723 10.8249 7.06946 10.8693 7.06946 11.0116H6.86501ZM6.60723 10.6116H7.33168C7.34501 10.6116 7.35835 10.6293 7.35835 10.6471C7.35835 10.6604 7.34501 10.6738 7.33168 10.6738H6.60723C6.5939 10.6738 6.58057 10.6604 6.58057 10.6427C6.58057 10.6293 6.5939 10.616 6.60723 10.616V10.6116ZM6.62501 10.6782H7.30946C7.32279 10.6782 7.33612 10.6916 7.33612 10.7093C7.33612 10.7271 7.32279 10.7404 7.30946 10.7404H6.62057C6.60279 10.7404 6.5939 10.7271 6.5939 10.7093C6.5939 10.6916 6.60279 10.6782 6.62057 10.6782H6.62501ZM6.84723 10.2071H6.90057V10.2427H6.94057V10.2071H6.99834V10.2471H7.03834V10.2027H7.09168V10.2916C7.09168 10.3093 7.08279 10.3182 7.06946 10.3182H6.8739C6.86057 10.3182 6.84723 10.3093 6.84723 10.296V10.2071ZM7.05168 10.3271L7.06501 10.6116H6.8739L6.88723 10.3227H7.05168" fill="#FFFF00"/>
<path d="M7.05168 10.3271L7.06501 10.6116H6.8739L6.88723 10.3227H7.05168M6.86501 11.0116C6.86501 10.8649 6.96723 10.8249 6.96723 10.8249C6.96723 10.8249 7.06946 10.8693 7.06946 11.0116H6.86501ZM6.60723 10.6116H7.33168C7.34501 10.6116 7.35835 10.6293 7.35835 10.6471C7.35835 10.6604 7.34501 10.6738 7.33168 10.6738H6.60723C6.5939 10.6738 6.58057 10.6604 6.58057 10.6427C6.58057 10.6293 6.5939 10.616 6.60723 10.616V10.6116ZM6.62501 10.6782H7.30946C7.32279 10.6782 7.33612 10.6916 7.33612 10.7093C7.33612 10.7271 7.32279 10.7404 7.30946 10.7404H6.62057C6.60279 10.7404 6.5939 10.7271 6.5939 10.7093C6.5939 10.6916 6.60279 10.6782 6.62057 10.6782H6.62501ZM6.84723 10.2071H6.90057V10.2427H6.94057V10.2071H6.99834V10.2471H7.03834V10.2027H7.09168V10.2916C7.09168 10.3093 7.08279 10.3182 7.06946 10.3182H6.8739C6.86057 10.3182 6.84723 10.3093 6.84723 10.296V10.2071Z" stroke="black" stroke-width="0.0222223"/>
<path d="M6.8206 10.4604V10.6115H6.64282V10.4604H6.8206Z" fill="#FFFF00" stroke="black" stroke-width="0.0222223"/>
<path d="M7.29179 10.4604V10.6116H7.11401V10.4604H7.29179Z" fill="#FFFF00" stroke="black" stroke-width="0.0222223"/>
<path d="M6.61157 10.3448H6.66491V10.3893H6.70491V10.3448H6.75824V10.3893H6.79824V10.3448H6.85157V10.4337C6.85157 10.4515 6.84268 10.4604 6.82935 10.4604H6.63824C6.63117 10.4604 6.62438 10.4576 6.61938 10.4526C6.61438 10.4476 6.61157 10.4408 6.61157 10.4337V10.3448Z" fill="#FFFF00" stroke="black" stroke-width="0.0222223"/>
<path d="M7.08276 10.3448H7.1361V10.3893H7.1761V10.3448H7.22943V10.3893H7.26943V10.3448H7.32276V10.4337C7.32276 10.4515 7.31387 10.4604 7.30054 10.4604H7.10943C7.10236 10.4604 7.09558 10.4576 7.09057 10.4526C7.08557 10.4476 7.08276 10.4408 7.08276 10.4337V10.3448Z" fill="#FFFF00" stroke="black" stroke-width="0.0222223"/>
<path d="M6.94946 10.416C6.94946 10.3893 6.98946 10.3893 6.98946 10.416V10.4871H6.94946V10.416Z" fill="#000001"/>
<path d="M6.71387 10.5137C6.71387 10.4871 6.74942 10.4871 6.74942 10.5137V10.5671H6.71387V10.5137Z" fill="#000001"/>
<path d="M7.18506 10.5137C7.18506 10.4871 7.22061 10.4871 7.22061 10.5137V10.5671H7.18506V10.5137Z" fill="#000001"/>
<path d="M7.58725 13.174C7.41693 12.9986 7.49807 12.8349 7.49807 12.8349C7.5012 12.8317 7.67689 12.7431 7.85034 12.9153L7.58725 13.174Z" fill="#FFFF00"/>
<path d="M7.26933 13.0714L7.44608 13.2907L7.57762 13.1583C7.41363 12.9954 7.51367 12.8442 7.51367 12.8442C7.5168 12.8411 7.67362 12.7525 7.83128 12.9028L7.96282 12.7704L7.73593 12.5952L7.26933 13.0714ZM7.43984 13.3033L7.97223 12.7672C7.98163 12.7577 8.00048 12.7577 8.0131 12.7702C8.02887 12.7859 8.02893 12.8047 8.01954 12.8142L7.48715 13.3503C7.47775 13.3598 7.4589 13.3598 7.44313 13.3442C7.43051 13.3316 7.43045 13.3128 7.44297 13.3002L7.43984 13.3033Z" fill="#FFFF00" stroke="black" stroke-width="0.0222223"/>
<path d="M7.63084 13.1047C7.52677 13.0013 7.57042 12.9006 7.57042 12.9006C7.57042 12.9006 7.67398 12.8594 7.7749 12.9596L7.63084 13.1047ZM7.16537 13.0057L7.67584 12.4917C7.68524 12.4822 7.70725 12.4853 7.71986 12.4978C7.72932 12.5072 7.72939 12.5261 7.71999 12.5355L7.20952 13.0496C7.20013 13.059 7.18127 13.0591 7.16866 13.0466C7.1592 13.0372 7.15913 13.0183 7.16853 13.0089L7.16537 13.0057ZM7.2252 13.0401L7.70749 12.5544C7.71688 12.545 7.73574 12.5449 7.74835 12.5574C7.76097 12.57 7.76103 12.5888 7.75164 12.5983L7.26622 13.0871C7.2537 13.0997 7.23797 13.0966 7.22536 13.0841C7.21274 13.0716 7.20954 13.0559 7.22207 13.0433L7.2252 13.0401ZM7.0475 12.5505L7.08508 12.5126L7.11031 12.5377L7.1385 12.5093L7.11327 12.4842L7.15398 12.4432L7.18236 12.4714L7.21055 12.443L7.17901 12.4117L7.21659 12.3739L7.27967 12.4365C7.29228 12.449 7.29232 12.4616 7.28293 12.4711L7.14513 12.6098C7.13574 12.6193 7.12004 12.6225 7.11057 12.6131L7.0475 12.5505ZM7.27671 12.4899L7.48794 12.6809L7.35327 12.8165L7.15768 12.6035L7.27356 12.4868" fill="#FFFF00"/>
<path d="M7.27671 12.4899L7.48794 12.6809L7.35327 12.8165L7.15768 12.6035L7.27356 12.4868M7.63084 13.1047C7.52677 13.0013 7.57042 12.9006 7.57042 12.9006C7.57042 12.9006 7.67398 12.8594 7.7749 12.9596L7.63084 13.1047ZM7.16537 13.0057L7.67584 12.4917C7.68524 12.4822 7.70725 12.4853 7.71986 12.4978C7.72932 12.5072 7.72939 12.5261 7.71999 12.5355L7.20952 13.0496C7.20013 13.059 7.18127 13.0591 7.16866 13.0466C7.1592 13.0372 7.15913 13.0183 7.16853 13.0089L7.16537 13.0057ZM7.2252 13.0401L7.70749 12.5544C7.71688 12.545 7.73574 12.5449 7.74835 12.5574C7.76097 12.57 7.76103 12.5888 7.75164 12.5983L7.26622 13.0871C7.2537 13.0997 7.23797 13.0966 7.22536 13.0841C7.21274 13.0716 7.20954 13.0559 7.22207 13.0433L7.2252 13.0401ZM7.0475 12.5505L7.08508 12.5126L7.11031 12.5377L7.1385 12.5093L7.11327 12.4842L7.15398 12.4432L7.18236 12.4714L7.21055 12.443L7.17901 12.4117L7.21659 12.3739L7.27967 12.4365C7.29228 12.449 7.29232 12.4616 7.28293 12.4711L7.14513 12.6098C7.13574 12.6193 7.12004 12.6225 7.11057 12.6131L7.0475 12.5505Z" stroke="black" stroke-width="0.0222223"/>
<path d="M7.20852 12.7479L7.31574 12.8544L7.19048 12.9805L7.08325 12.874L7.20852 12.7479Z" fill="#FFFF00" stroke="black" stroke-width="0.0222223"/>
<path d="M7.54055 12.4136L7.64778 12.5201L7.52251 12.6462L7.41528 12.5397L7.54055 12.4136Z" fill="#FFFF00" stroke="black" stroke-width="0.0222223"/>
<path d="M6.97925 12.8147L7.01683 12.7768L7.04837 12.8081L7.07655 12.7798L7.04501 12.7484L7.08259 12.7106L7.11413 12.7419L7.14232 12.7135L7.11078 12.6822L7.14836 12.6444L7.21143 12.707C7.22405 12.7195 7.22409 12.7321 7.2147 12.7416L7.08003 12.8772C7.07505 12.8822 7.06828 12.885 7.0612 12.885C7.05413 12.8851 7.04734 12.8823 7.04232 12.8773L6.97925 12.8147Z" fill="#FFFF00" stroke="black" stroke-width="0.0222223"/>
<path d="M7.31128 12.4804L7.34886 12.4425L7.3804 12.4739L7.40858 12.4455L7.37704 12.4142L7.41463 12.3763L7.44616 12.4076L7.47435 12.3792L7.44281 12.3479L7.48039 12.3101L7.54346 12.3727C7.55608 12.3852 7.55612 12.3978 7.54673 12.4073L7.41206 12.5429C7.40708 12.5479 7.40031 12.5507 7.39324 12.5508C7.38616 12.5508 7.37937 12.548 7.37435 12.543L7.31128 12.4804Z" fill="#FFFF00" stroke="black" stroke-width="0.0222223"/>
<path d="M7.26785 12.6251C7.24893 12.6063 7.27712 12.5779 7.29604 12.5967L7.3465 12.6468L7.31831 12.6752L7.26785 12.6251Z" fill="#000001"/>
<path d="M7.17117 12.8611C7.15225 12.8423 7.17731 12.8171 7.19623 12.8359L7.23407 12.8735L7.20902 12.8987L7.17117 12.8611Z" fill="#000001"/>
<path d="M7.50321 12.5268C7.48428 12.5081 7.50934 12.4828 7.52826 12.5016L7.5661 12.5392L7.54105 12.5644L7.50321 12.5268Z" fill="#000001"/>
<path d="M8.81641 8.97159C8.82085 8.72715 8.99418 8.66937 8.99418 8.66937C8.99863 8.66937 9.1853 8.73159 9.1853 8.97604L8.81641 8.97159Z" fill="#FFFF00"/>
<path d="M8.66535 8.67382L8.63424 8.95382H8.82091C8.82091 8.72271 8.99868 8.68715 8.99868 8.68715C9.00313 8.68715 9.17646 8.73604 9.18091 8.95382H9.36757L9.33202 8.66937L8.66535 8.67382ZM8.62091 8.95826H9.37646C9.3898 8.95826 9.40313 8.9716 9.40313 8.98937C9.40313 9.0116 9.3898 9.02493 9.37646 9.02493H8.62091C8.60757 9.02493 8.59424 9.0116 8.59424 8.98937C8.59424 8.9716 8.60757 8.95826 8.62535 8.95826H8.62091Z" fill="#FFFF00" stroke="black" stroke-width="0.0222223"/>
<path d="M8.89651 8.95385C8.89651 8.80718 8.99873 8.76718 8.99873 8.76718C8.99873 8.76718 9.10095 8.81163 9.10095 8.95385H8.89651ZM8.63873 8.55385H9.36317C9.37651 8.55385 9.38984 8.57163 9.38984 8.5894C9.38984 8.60274 9.37651 8.61607 9.36317 8.61607H8.63873C8.62539 8.61607 8.61206 8.60274 8.61206 8.58496C8.61206 8.57163 8.62539 8.55829 8.63873 8.55829V8.55385ZM8.65651 8.62051H9.34095C9.35428 8.62051 9.36762 8.63385 9.36762 8.65163C9.36762 8.6694 9.35428 8.68274 9.34095 8.68274H8.65206C8.63428 8.68274 8.62539 8.6694 8.62539 8.65163C8.62539 8.63385 8.63428 8.62051 8.65206 8.62051H8.65651ZM8.87873 8.1494H8.93206V8.18496H8.97206V8.1494H9.02984V8.1894H9.06984V8.14496H9.12317V8.23385C9.12317 8.25163 9.11428 8.26051 9.10095 8.26051H8.90539C8.89206 8.26051 8.87873 8.25162 8.87873 8.23829V8.1494ZM9.08317 8.2694L9.09651 8.55385H8.90539L8.91873 8.26496H9.08317" fill="#FFFF00"/>
<path d="M9.08317 8.2694L9.09651 8.55385H8.90539L8.91873 8.26496H9.08317M8.89651 8.95385C8.89651 8.80718 8.99873 8.76718 8.99873 8.76718C8.99873 8.76718 9.10095 8.81163 9.10095 8.95385H8.89651ZM8.63873 8.55385H9.36317C9.37651 8.55385 9.38984 8.57163 9.38984 8.5894C9.38984 8.60274 9.37651 8.61607 9.36317 8.61607H8.63873C8.62539 8.61607 8.61206 8.60274 8.61206 8.58496C8.61206 8.57163 8.62539 8.55829 8.63873 8.55829V8.55385ZM8.65651 8.62051H9.34095C9.35428 8.62051 9.36762 8.63385 9.36762 8.65163C9.36762 8.6694 9.35428 8.68274 9.34095 8.68274H8.65206C8.63428 8.68274 8.62539 8.6694 8.62539 8.65163C8.62539 8.63385 8.63428 8.62051 8.65206 8.62051H8.65651ZM8.87873 8.1494H8.93206V8.18496H8.97206V8.1494H9.02984V8.1894H9.06984V8.14496H9.12317V8.23385C9.12317 8.25163 9.11428 8.26051 9.10095 8.26051H8.90539C8.89206 8.26051 8.87873 8.25162 8.87873 8.23829V8.1494Z" stroke="black" stroke-width="0.0222223"/>
<path d="M8.85209 8.40271V8.55382H8.67432V8.40271H8.85209Z" fill="#FFFF00" stroke="black" stroke-width="0.0222223"/>
<path d="M9.32304 8.40271V8.55382H9.14526V8.40271H9.32304Z" fill="#FFFF00" stroke="black" stroke-width="0.0222223"/>
<path d="M8.64307 8.28714H8.6964V8.33158H8.7364V8.28714H8.78973V8.33158H8.82973V8.28714H8.88307V8.37603C8.88307 8.39381 8.87418 8.4027 8.86084 8.4027H8.66973C8.66266 8.4027 8.65588 8.39989 8.65088 8.39489C8.64588 8.38988 8.64307 8.3831 8.64307 8.37603V8.28714Z" fill="#FFFF00" stroke="black" stroke-width="0.0222223"/>
<path d="M9.11426 8.28714H9.16759V8.33158H9.20759V8.28714H9.26092V8.33158H9.30092V8.28714H9.35426V8.37603C9.35426 8.39381 9.34537 8.4027 9.33204 8.4027H9.14092C9.13385 8.4027 9.12707 8.39989 9.12207 8.39489C9.11707 8.38988 9.11426 8.3831 9.11426 8.37603V8.28714Z" fill="#FFFF00" stroke="black" stroke-width="0.0222223"/>
<path d="M8.98096 8.35826C8.98096 8.33159 9.02096 8.33159 9.02096 8.35826V8.42937H8.98096V8.35826Z" fill="#000001"/>
<path d="M8.74536 8.45604C8.74536 8.42937 8.78092 8.42937 8.78092 8.45604V8.50937H8.74536V8.45604Z" fill="#000001"/>
<path d="M9.21655 8.45604C9.21655 8.42937 9.25211 8.42937 9.25211 8.45604V8.50937H9.21655V8.45604Z" fill="#000001"/>
<path d="M11.2026 8.97156C11.1982 8.72712 11.0249 8.66934 11.0249 8.66934C11.0204 8.66934 10.8337 8.73156 10.8337 8.97601L11.2026 8.97156Z" fill="#FFFF00"/>
<path d="M11.3537 8.67376L11.3848 8.95376H11.1981C11.1981 8.72264 11.0204 8.68709 11.0204 8.68709C11.0159 8.68709 10.8426 8.73598 10.8381 8.95376H10.6515L10.687 8.66931L11.3537 8.67376ZM11.3981 8.9582H10.6426C10.6292 8.9582 10.6159 8.97153 10.6159 8.98931C10.6159 9.01153 10.6292 9.02487 10.6426 9.02487H11.3981C11.4115 9.02487 11.4248 9.01153 11.4248 8.98931C11.4248 8.97153 11.4115 8.9582 11.3937 8.9582H11.3981Z" fill="#FFFF00" stroke="black" stroke-width="0.0222223"/>
<path d="M11.1228 8.95379C11.1228 8.80712 11.0206 8.76712 11.0206 8.76712C11.0206 8.76712 10.9183 8.81157 10.9183 8.95379H11.1228ZM11.3806 8.55379H10.6561C10.6428 8.55379 10.6294 8.57156 10.6294 8.58934C10.6294 8.60268 10.6428 8.61601 10.6561 8.61601H11.3806C11.3939 8.61601 11.4072 8.60268 11.4072 8.5849C11.4072 8.57156 11.3939 8.55823 11.3806 8.55823V8.55379ZM11.3628 8.62045H10.6783C10.665 8.62045 10.6517 8.63379 10.6517 8.65156C10.6517 8.66934 10.665 8.68268 10.6783 8.68268H11.3672C11.385 8.68268 11.3939 8.66934 11.3939 8.65156C11.3939 8.63379 11.385 8.62045 11.3672 8.62045H11.3628ZM11.1406 8.14934H11.0872V8.1849H11.0472V8.14934H10.9894V8.18934H10.9494V8.1449H10.8961V8.23379C10.8961 8.25156 10.905 8.26045 10.9183 8.26045H11.1139C11.1272 8.26045 11.1406 8.25156 11.1406 8.23823V8.14934ZM10.9361 8.26934L10.9228 8.55379H11.1139L11.1006 8.2649H10.9361" fill="#FFFF00"/>
<path d="M10.9361 8.26934L10.9228 8.55379H11.1139L11.1006 8.2649H10.9361M11.1228 8.95379C11.1228 8.80712 11.0206 8.76712 11.0206 8.76712C11.0206 8.76712 10.9183 8.81157 10.9183 8.95379H11.1228ZM11.3806 8.55379H10.6561C10.6428 8.55379 10.6294 8.57156 10.6294 8.58934C10.6294 8.60268 10.6428 8.61601 10.6561 8.61601H11.3806C11.3939 8.61601 11.4072 8.60268 11.4072 8.5849C11.4072 8.57156 11.3939 8.55823 11.3806 8.55823V8.55379ZM11.3628 8.62045H10.6783C10.665 8.62045 10.6517 8.63379 10.6517 8.65156C10.6517 8.66934 10.665 8.68268 10.6783 8.68268H11.3672C11.385 8.68268 11.3939 8.66934 11.3939 8.65156C11.3939 8.63379 11.385 8.62045 11.3672 8.62045H11.3628ZM11.1406 8.14934H11.0872V8.1849H11.0472V8.14934H10.9894V8.18934H10.9494V8.1449H10.8961V8.23379C10.8961 8.25156 10.905 8.26045 10.9183 8.26045H11.1139C11.1272 8.26045 11.1406 8.25156 11.1406 8.23823V8.14934Z" stroke="black" stroke-width="0.0222223"/>
<path d="M11.1669 8.40265V8.55376H11.3447V8.40265H11.1669Z" fill="#FFFF00" stroke="black" stroke-width="0.0222223"/>
<path d="M10.696 8.40265V8.55376H10.8738V8.40265H10.696Z" fill="#FFFF00" stroke="black" stroke-width="0.0222223"/>
<path d="M11.376 8.28711H11.3226V8.33155H11.2826V8.28711H11.2293V8.33155H11.1893V8.28711H11.136V8.376C11.136 8.39378 11.1449 8.40267 11.1582 8.40267H11.3493C11.3564 8.40267 11.3632 8.39986 11.3682 8.39485C11.3732 8.38985 11.376 8.38307 11.376 8.376V8.28711Z" fill="#FFFF00" stroke="black" stroke-width="0.0222223"/>
<path d="M10.9048 8.28708H10.8515V8.33152H10.8115V8.28708H10.7581V8.33152H10.7181V8.28708H10.6648V8.37597C10.6648 8.39375 10.6737 8.40263 10.687 8.40263H10.8781C10.8852 8.40263 10.892 8.39983 10.897 8.39482C10.902 8.38982 10.9048 8.38304 10.9048 8.37597V8.28708Z" fill="#FFFF00" stroke="black" stroke-width="0.0222223"/>
<path d="M11.0381 8.3582C11.0381 8.33153 10.9981 8.33153 10.9981 8.3582V8.42931H11.0381V8.3582Z" fill="#000001"/>
<path d="M11.2737 8.45597C11.2737 8.42931 11.2381 8.42931 11.2381 8.45597V8.50931H11.2737V8.45597Z" fill="#000001"/>
<path d="M10.8025 8.45597C10.8025 8.42931 10.7669 8.42931 10.7669 8.45597V8.50931H10.8025V8.45597Z" fill="#000001"/>
<path d="M11.2026 11.0293C11.1982 10.7849 11.0249 10.7271 11.0249 10.7271C11.0204 10.7271 10.8337 10.7893 10.8337 11.0338L11.2026 11.0293Z" fill="#FFFF00"/>
<path d="M11.3537 10.7315L11.3848 11.0115H11.1981C11.1981 10.7804 11.0204 10.7449 11.0204 10.7449C11.0159 10.7449 10.8426 10.7937 10.8381 11.0115H10.6515L10.687 10.7271L11.3537 10.7315ZM11.3981 11.016H10.6426C10.6292 11.016 10.6159 11.0293 10.6159 11.0471C10.6159 11.0693 10.6292 11.0826 10.6426 11.0826H11.3981C11.4115 11.0826 11.4248 11.0693 11.4248 11.0471C11.4248 11.0293 11.4115 11.016 11.3937 11.016H11.3981Z" fill="#FFFF00" stroke="black" stroke-width="0.0222223"/>
<path d="M11.1228 11.0116C11.1228 10.8649 11.0206 10.8249 11.0206 10.8249C11.0206 10.8249 10.9183 10.8693 10.9183 11.0116H11.1228ZM11.3806 10.6116H10.6561C10.6428 10.6116 10.6294 10.6293 10.6294 10.6471C10.6294 10.6604 10.6428 10.6738 10.6561 10.6738H11.3806C11.3939 10.6738 11.4072 10.6604 11.4072 10.6427C11.4072 10.6293 11.3939 10.616 11.3806 10.616V10.6116ZM11.3628 10.6782H10.6783C10.665 10.6782 10.6517 10.6916 10.6517 10.7093C10.6517 10.7271 10.665 10.7404 10.6783 10.7404H11.3672C11.385 10.7404 11.3939 10.7271 11.3939 10.7093C11.3939 10.6916 11.385 10.6782 11.3672 10.6782H11.3628ZM11.1406 10.2071H11.0872V10.2427H11.0472V10.2071H10.9894V10.2471H10.9494V10.2027H10.8961V10.2916C10.8961 10.3093 10.905 10.3182 10.9183 10.3182H11.1139C11.1272 10.3182 11.1406 10.3093 11.1406 10.296V10.2071ZM10.9361 10.3271L10.9228 10.6116H11.1139L11.1006 10.3227H10.9361" fill="#FFFF00"/>
<path d="M10.9361 10.3271L10.9228 10.6116H11.1139L11.1006 10.3227H10.9361M11.1228 11.0116C11.1228 10.8649 11.0206 10.8249 11.0206 10.8249C11.0206 10.8249 10.9183 10.8693 10.9183 11.0116H11.1228ZM11.3806 10.6116H10.6561C10.6428 10.6116 10.6294 10.6293 10.6294 10.6471C10.6294 10.6604 10.6428 10.6738 10.6561 10.6738H11.3806C11.3939 10.6738 11.4072 10.6604 11.4072 10.6427C11.4072 10.6293 11.3939 10.616 11.3806 10.616V10.6116ZM11.3628 10.6782H10.6783C10.665 10.6782 10.6517 10.6916 10.6517 10.7093C10.6517 10.7271 10.665 10.7404 10.6783 10.7404H11.3672C11.385 10.7404 11.3939 10.7271 11.3939 10.7093C11.3939 10.6916 11.385 10.6782 11.3672 10.6782H11.3628ZM11.1406 10.2071H11.0872V10.2427H11.0472V10.2071H10.9894V10.2471H10.9494V10.2027H10.8961V10.2916C10.8961 10.3093 10.905 10.3182 10.9183 10.3182H11.1139C11.1272 10.3182 11.1406 10.3093 11.1406 10.296V10.2071Z" stroke="black" stroke-width="0.0222223"/>
<path d="M11.1669 10.4604V10.6115H11.3447V10.4604H11.1669Z" fill="#FFFF00" stroke="black" stroke-width="0.0222223"/>
<path d="M10.696 10.4604V10.6115H10.8738V10.4604H10.696Z" fill="#FFFF00" stroke="black" stroke-width="0.0222223"/>
<path d="M11.376 10.3449H11.3226V10.3893H11.2826V10.3449H11.2293V10.3893H11.1893V10.3449H11.136V10.4338C11.136 10.4515 11.1449 10.4604 11.1582 10.4604H11.3493C11.3564 10.4604 11.3632 10.4576 11.3682 10.4526C11.3732 10.4476 11.376 10.4408 11.376 10.4338V10.3449Z" fill="#FFFF00" stroke="black" stroke-width="0.0222223"/>
<path d="M10.9048 10.3448H10.8515V10.3893H10.8115V10.3448H10.7581V10.3893H10.7181V10.3448H10.6648V10.4337C10.6648 10.4515 10.6737 10.4604 10.687 10.4604H10.8781C10.8852 10.4604 10.892 10.4576 10.897 10.4526C10.902 10.4476 10.9048 10.4408 10.9048 10.4337V10.3448Z" fill="#FFFF00" stroke="black" stroke-width="0.0222223"/>
<path d="M11.0381 10.416C11.0381 10.3893 10.9981 10.3893 10.9981 10.416V10.4871H11.0381V10.416Z" fill="#000001"/>
<path d="M11.2737 10.5137C11.2737 10.4871 11.2381 10.4871 11.2381 10.5137V10.5671H11.2737V10.5137Z" fill="#000001"/>
<path d="M10.8025 10.5137C10.8025 10.4871 10.7669 10.4871 10.7669 10.5137V10.5671H10.8025V10.5137Z" fill="#000001"/>
<path d="M10.4005 13.174C10.5709 12.9986 10.4897 12.8349 10.4897 12.8349C10.4866 12.8318 10.3109 12.7431 10.1375 12.9154L10.4005 13.174Z" fill="#FFFF00"/>
<path d="M10.7185 13.0714L10.5417 13.2908L10.4102 13.1583C10.5742 12.9955 10.4741 12.8443 10.4741 12.8443C10.471 12.8411 10.3142 12.7526 10.1565 12.9029L10.025 12.7704L10.2519 12.5952L10.7185 13.0714ZM10.548 13.3034L10.0156 12.7673C10.0062 12.7578 9.98731 12.7577 9.97469 12.7703C9.95893 12.7859 9.95886 12.8048 9.96825 12.8142L10.5006 13.3504C10.51 13.3598 10.5289 13.3599 10.5447 13.3442C10.5573 13.3317 10.5573 13.3128 10.5448 13.3002L10.548 13.3034Z" fill="#FFFF00" stroke="black" stroke-width="0.0222223"/>
<path d="M10.357 13.1047C10.461 13.0014 10.4174 12.9007 10.4174 12.9007C10.4174 12.9007 10.3138 12.8595 10.2129 12.9597L10.357 13.1047ZM10.8224 13.0058L10.312 12.4918C10.3026 12.4823 10.2805 12.4854 10.2679 12.4979C10.2585 12.5073 10.2584 12.5261 10.2678 12.5356L10.7783 13.0496C10.7877 13.0591 10.8065 13.0592 10.8191 13.0466C10.8286 13.0372 10.8287 13.0184 10.8193 13.0089L10.8224 13.0058ZM10.7626 13.0402L10.2803 12.5545C10.2709 12.545 10.2521 12.545 10.2394 12.5575C10.2268 12.57 10.2268 12.5889 10.2362 12.5983L10.7216 13.0872C10.7341 13.0998 10.7498 13.0967 10.7624 13.0842C10.7751 13.0716 10.7782 13.0559 10.7657 13.0433L10.7626 13.0402ZM10.9403 12.5505L10.9027 12.5127L10.8775 12.5377L10.8493 12.5093L10.8745 12.4843L10.8338 12.4433L10.8054 12.4715L10.7772 12.4431L10.8088 12.4118L10.7712 12.3739L10.7081 12.4366C10.6955 12.4491 10.6955 12.4617 10.7049 12.4711L10.8427 12.6099C10.8521 12.6193 10.8678 12.6225 10.8772 12.6131L10.9403 12.5505ZM10.7111 12.49L10.4999 12.681L10.6345 12.8166L10.8301 12.6036L10.7142 12.4869" fill="#FFFF00"/>
<path d="M10.7111 12.49L10.4999 12.681L10.6345 12.8166L10.8301 12.6036L10.7142 12.4869M10.357 13.1047C10.461 13.0014 10.4174 12.9007 10.4174 12.9007C10.4174 12.9007 10.3138 12.8595 10.2129 12.9597L10.357 13.1047ZM10.8224 13.0058L10.312 12.4918C10.3026 12.4823 10.2805 12.4854 10.2679 12.4979C10.2585 12.5073 10.2584 12.5261 10.2678 12.5356L10.7783 13.0496C10.7877 13.0591 10.8065 13.0592 10.8191 13.0466C10.8286 13.0372 10.8287 13.0184 10.8193 13.0089L10.8224 13.0058ZM10.7626 13.0402L10.2803 12.5545C10.2709 12.545 10.2521 12.545 10.2394 12.5575C10.2268 12.57 10.2268 12.5889 10.2362 12.5983L10.7216 13.0872C10.7341 13.0998 10.7498 13.0967 10.7624 13.0842C10.7751 13.0716 10.7782 13.0559 10.7657 13.0433L10.7626 13.0402ZM10.9403 12.5505L10.9027 12.5127L10.8775 12.5377L10.8493 12.5093L10.8745 12.4843L10.8338 12.4433L10.8054 12.4715L10.7772 12.4431L10.8088 12.4118L10.7712 12.3739L10.7081 12.4366C10.6955 12.4491 10.6955 12.4617 10.7049 12.4711L10.8427 12.6099C10.8521 12.6193 10.8678 12.6225 10.8772 12.6131L10.9403 12.5505Z" stroke="black" stroke-width="0.0222223"/>
<path d="M10.7793 12.7479L10.672 12.8544L10.7973 12.9806L10.9045 12.8741L10.7793 12.7479Z" fill="#FFFF00" stroke="black" stroke-width="0.0222223"/>
<path d="M10.4472 12.4136L10.34 12.5201L10.4653 12.6463L10.5725 12.5398L10.4472 12.4136Z" fill="#FFFF00" stroke="black" stroke-width="0.0222223"/>
<path d="M11.0085 12.8147L10.971 12.7769L10.9394 12.8082L10.9112 12.7798L10.9428 12.7485L10.9052 12.7107L10.8737 12.742L10.8455 12.7136L10.877 12.6823L10.8394 12.6444L10.7764 12.7071C10.7637 12.7196 10.7637 12.7322 10.7731 12.7416L10.9078 12.8772C10.9127 12.8822 10.9195 12.8851 10.9266 12.8851C10.9337 12.8851 10.9405 12.8823 10.9455 12.8774L11.0085 12.8147Z" fill="#FFFF00" stroke="black" stroke-width="0.0222223"/>
<path d="M10.6765 12.4804L10.6389 12.4426L10.6074 12.4739L10.5792 12.4455L10.6107 12.4142L10.5732 12.3764L10.5416 12.4077L10.5134 12.3793L10.545 12.348L10.5074 12.3101L10.4443 12.3728C10.4317 12.3853 10.4317 12.3979 10.4411 12.4073L10.5757 12.5429C10.5807 12.548 10.5875 12.5508 10.5946 12.5508C10.6016 12.5508 10.6084 12.5481 10.6134 12.5431L10.6765 12.4804Z" fill="#FFFF00" stroke="black" stroke-width="0.0222223"/>
<path d="M10.7199 12.6251C10.7389 12.6064 10.7107 12.578 10.6918 12.5968L10.6413 12.6469L10.6695 12.6753L10.7199 12.6251Z" fill="#000001"/>
<path d="M10.8166 12.8612C10.8355 12.8424 10.8105 12.8172 10.7916 12.836L10.7537 12.8736L10.7788 12.8988L10.8166 12.8612Z" fill="#000001"/>
<path d="M10.4846 12.5269C10.5035 12.5081 10.4785 12.4829 10.4595 12.5017L10.4217 12.5393L10.4467 12.5645L10.4846 12.5269Z" fill="#000001"/>
<path d="M8.66969 11.1049C8.66889 11.1987 8.70385 11.2893 8.76747 11.3583C8.79715 11.3915 8.83343 11.4181 8.87399 11.4365C8.91455 11.4548 8.9585 11.4645 9.00303 11.4649C9.09636 11.4649 9.1808 11.4205 9.23858 11.3583C9.3022 11.2893 9.33716 11.1987 9.33636 11.1049V10.6249H8.66969V11.1049Z" fill="#003399"/>
<path d="M8.82521 10.8738C8.86203 10.8738 8.89188 10.844 8.89188 10.8072C8.89188 10.7704 8.86203 10.7405 8.82521 10.7405C8.78839 10.7405 8.75854 10.7704 8.75854 10.8072C8.75854 10.844 8.78839 10.8738 8.82521 10.8738Z" fill="white"/>
<path d="M9.19411 10.8738C9.23093 10.8738 9.26077 10.844 9.26077 10.8072C9.26077 10.7704 9.23093 10.7405 9.19411 10.7405C9.15729 10.7405 9.12744 10.7704 9.12744 10.8072C9.12744 10.844 9.15729 10.8738 9.19411 10.8738Z" fill="white"/>
<path d="M9.00758 11.0516C9.0444 11.0516 9.07425 11.0218 9.07425 10.9849C9.07425 10.9481 9.0444 10.9183 9.00758 10.9183C8.97077 10.9183 8.94092 10.9481 8.94092 10.9849C8.94092 11.0218 8.97077 11.0516 9.00758 11.0516Z" fill="white"/>
<path d="M8.82521 11.2383C8.86203 11.2383 8.89188 11.2084 8.89188 11.1716C8.89188 11.1348 8.86203 11.1049 8.82521 11.1049C8.78839 11.1049 8.75854 11.1348 8.75854 11.1716C8.75854 11.2084 8.78839 11.2383 8.82521 11.2383Z" fill="white"/>
<path d="M9.19411 11.2383C9.23093 11.2383 9.26077 11.2084 9.26077 11.1716C9.26077 11.1348 9.23093 11.1049 9.19411 11.1049C9.15729 11.1049 9.12744 11.1348 9.12744 11.1716C9.12744 11.2084 9.15729 11.2383 9.19411 11.2383Z" fill="white"/>
<path d="M8.66969 9.94939C8.66889 10.0432 8.70385 10.1338 8.76747 10.2027C8.79715 10.2359 8.83343 10.2625 8.87399 10.2809C8.91455 10.2993 8.9585 10.309 9.00303 10.3094C9.09636 10.3094 9.1808 10.2649 9.23858 10.2027C9.3022 10.1338 9.33716 10.0432 9.33636 9.94939V9.46939H8.66969V9.94939Z" fill="#003399"/>
<path d="M8.82521 9.71829C8.86203 9.71829 8.89188 9.68845 8.89188 9.65163C8.89188 9.61481 8.86203 9.58496 8.82521 9.58496C8.78839 9.58496 8.75854 9.61481 8.75854 9.65163C8.75854 9.68845 8.78839 9.71829 8.82521 9.71829Z" fill="white"/>
<path d="M9.19411 9.71829C9.23093 9.71829 9.26077 9.68845 9.26077 9.65163C9.26077 9.61481 9.23093 9.58496 9.19411 9.58496C9.15729 9.58496 9.12744 9.61481 9.12744 9.65163C9.12744 9.68845 9.15729 9.71829 9.19411 9.71829Z" fill="white"/>
<path d="M9.00758 9.89606C9.0444 9.89606 9.07425 9.86621 9.07425 9.82939C9.07425 9.79257 9.0444 9.76273 9.00758 9.76273C8.97077 9.76273 8.94092 9.79257 8.94092 9.82939C8.94092 9.86621 8.97077 9.89606 9.00758 9.89606Z" fill="white"/>
<path d="M8.82521 10.0827C8.86203 10.0827 8.89188 10.0529 8.89188 10.0161C8.89188 9.97925 8.86203 9.9494 8.82521 9.9494C8.78839 9.9494 8.75854 9.97925 8.75854 10.0161C8.75854 10.0529 8.78839 10.0827 8.82521 10.0827Z" fill="white"/>
<path d="M9.19411 10.0827C9.23093 10.0827 9.26077 10.0529 9.26077 10.0161C9.26077 9.97925 9.23093 9.9494 9.19411 9.9494C9.15729 9.9494 9.12744 9.97925 9.12744 10.0161C9.12744 10.0529 9.15729 10.0827 9.19411 10.0827Z" fill="white"/>
<path d="M7.74537 11.105C7.74457 11.1988 7.77953 11.2894 7.84315 11.3583C7.87283 11.3915 7.90912 11.4181 7.94968 11.4365C7.99024 11.4549 8.03419 11.4646 8.07871 11.465C8.17204 11.465 8.25649 11.4205 8.31426 11.3583C8.37788 11.2894 8.41285 11.1988 8.41204 11.105V10.625H7.74537V11.105Z" fill="#003399"/>
<path d="M7.9009 10.8739C7.93771 10.8739 7.96756 10.844 7.96756 10.8072C7.96756 10.7704 7.93771 10.7405 7.9009 10.7405C7.86408 10.7405 7.83423 10.7704 7.83423 10.8072C7.83423 10.844 7.86408 10.8739 7.9009 10.8739Z" fill="white"/>
<path d="M8.26979 10.8739C8.30661 10.8739 8.33646 10.844 8.33646 10.8072C8.33646 10.7704 8.30661 10.7405 8.26979 10.7405C8.23297 10.7405 8.20312 10.7704 8.20312 10.8072C8.20312 10.844 8.23297 10.8739 8.26979 10.8739Z" fill="white"/>
<path d="M8.08327 11.0516C8.12009 11.0516 8.14994 11.0218 8.14994 10.985C8.14994 10.9482 8.12009 10.9183 8.08327 10.9183C8.04645 10.9183 8.0166 10.9482 8.0166 10.985C8.0166 11.0218 8.04645 11.0516 8.08327 11.0516Z" fill="white"/>
<path d="M7.9009 11.2383C7.93771 11.2383 7.96756 11.2085 7.96756 11.1716C7.96756 11.1348 7.93771 11.105 7.9009 11.105C7.86408 11.105 7.83423 11.1348 7.83423 11.1716C7.83423 11.2085 7.86408 11.2383 7.9009 11.2383Z" fill="white"/>
<path d="M8.26979 11.2383C8.30661 11.2383 8.33646 11.2085 8.33646 11.1716C8.33646 11.1348 8.30661 11.105 8.26979 11.105C8.23297 11.105 8.20312 11.1348 8.20312 11.1716C8.20312 11.2085 8.23297 11.2383 8.26979 11.2383Z" fill="white"/>
<path d="M9.59425 11.1049C9.59345 11.1987 9.62841 11.2893 9.69203 11.3583C9.72171 11.3915 9.75799 11.4181 9.79855 11.4365C9.83911 11.4548 9.88306 11.4645 9.92759 11.4649C10.0209 11.4649 10.1054 11.4205 10.1631 11.3583C10.2268 11.2893 10.2617 11.1987 10.2609 11.1049V10.6249H9.59425V11.1049Z" fill="#003399"/>
<path d="M9.74977 10.8738C9.78659 10.8738 9.81644 10.844 9.81644 10.8072C9.81644 10.7704 9.78659 10.7405 9.74977 10.7405C9.71295 10.7405 9.68311 10.7704 9.68311 10.8072C9.68311 10.844 9.71295 10.8738 9.74977 10.8738Z" fill="white"/>
<path d="M10.1187 10.8738C10.1555 10.8738 10.1853 10.844 10.1853 10.8072C10.1853 10.7704 10.1555 10.7405 10.1187 10.7405C10.0818 10.7405 10.052 10.7704 10.052 10.8072C10.052 10.844 10.0818 10.8738 10.1187 10.8738Z" fill="white"/>
<path d="M9.93215 11.0516C9.96896 11.0516 9.99881 11.0218 9.99881 10.9849C9.99881 10.9481 9.96896 10.9183 9.93215 10.9183C9.89533 10.9183 9.86548 10.9481 9.86548 10.9849C9.86548 11.0218 9.89533 11.0516 9.93215 11.0516Z" fill="white"/>
<path d="M9.74977 11.2383C9.78659 11.2383 9.81644 11.2084 9.81644 11.1716C9.81644 11.1348 9.78659 11.1049 9.74977 11.1049C9.71295 11.1049 9.68311 11.1348 9.68311 11.1716C9.68311 11.2084 9.71295 11.2383 9.74977 11.2383Z" fill="white"/>
<path d="M10.1187 11.2383C10.1555 11.2383 10.1853 11.2085 10.1853 11.1716C10.1853 11.1348 10.1555 11.105 10.1187 11.105C10.0818 11.105 10.052 11.1348 10.052 11.1716C10.052 11.2085 10.0818 11.2383 10.1187 11.2383Z" fill="white"/>
<path d="M8.66969 12.2516C8.66889 12.3454 8.70385 12.436 8.76747 12.5049C8.79715 12.5381 8.83343 12.5648 8.87399 12.5831C8.91455 12.6015 8.9585 12.6112 9.00303 12.6116C9.09636 12.6116 9.1808 12.5672 9.23858 12.5049C9.3022 12.436 9.33716 12.3454 9.33636 12.2516V11.7716H8.66969V12.2516Z" fill="#003399"/>
<path d="M8.82521 12.0205C8.86203 12.0205 8.89188 11.9907 8.89188 11.9538C8.89188 11.917 8.86203 11.8872 8.82521 11.8872C8.78839 11.8872 8.75854 11.917 8.75854 11.9538C8.75854 11.9907 8.78839 12.0205 8.82521 12.0205Z" fill="white"/>
<path d="M9.19411 12.0205C9.23093 12.0205 9.26077 11.9907 9.26077 11.9538C9.26077 11.917 9.23093 11.8872 9.19411 11.8872C9.15729 11.8872 9.12744 11.917 9.12744 11.9538C9.12744 11.9907 9.15729 12.0205 9.19411 12.0205Z" fill="white"/>
<path d="M9.00758 12.1983C9.0444 12.1983 9.07425 12.1684 9.07425 12.1316C9.07425 12.0948 9.0444 12.0649 9.00758 12.0649C8.97077 12.0649 8.94092 12.0948 8.94092 12.1316C8.94092 12.1684 8.97077 12.1983 9.00758 12.1983Z" fill="white"/>
<path d="M8.82521 12.385C8.86203 12.385 8.89188 12.3551 8.89188 12.3183C8.89188 12.2815 8.86203 12.2516 8.82521 12.2516C8.78839 12.2516 8.75854 12.2815 8.75854 12.3183C8.75854 12.3551 8.78839 12.385 8.82521 12.385Z" fill="white"/>
<path d="M9.19411 12.385C9.23093 12.385 9.26077 12.3551 9.26077 12.3183C9.26077 12.2815 9.23093 12.2516 9.19411 12.2516C9.15729 12.2516 9.12744 12.2815 9.12744 12.3183C9.12744 12.3551 9.15729 12.385 9.19411 12.385Z" fill="white"/>
</g>
<rect x="1" y="1" width="20" height="20" rx="10" stroke="#ECF3FF" stroke-opacity="0.1"/>
<defs>
<clipPath id="clip0_28_3118">
<rect x="1" y="1" width="20" height="20" rx="10" fill="white"/>
</clipPath>
</defs>
</svg>
