<svg width="20" height="20" viewBox="0 0 20 20" fill="none" xmlns="http://www.w3.org/2000/svg">
<g clip-path="url(#clip0_28_4138)">
<path fill-rule="evenodd" clip-rule="evenodd" d="M0 0H20V20H0V0Z" fill="#E30A17"/>
<path fill-rule="evenodd" clip-rule="evenodd" d="M13.625 10.3125C13.625 13.0703 11.3477 15.3086 8.54297 15.3086C5.73828 15.3086 3.46094 13.0703 3.46094 10.3086C3.46094 7.54687 5.73438 5.31641 8.53906 5.31641C11.3438 5.31641 13.6289 7.55078 13.6289 10.3125H13.625Z" fill="white"/>
<path fill-rule="evenodd" clip-rule="evenodd" d="M13.8789 10.3125C13.8789 12.5195 12.0586 14.3086 9.8125 14.3086C7.56641 14.3086 5.75 12.5195 5.75 10.3125C5.75 8.10547 7.56641 6.31641 9.8125 6.31641C12.0586 6.31641 13.875 8.10547 13.875 10.3125H13.8789Z" fill="#E30A17"/>
<path fill-rule="evenodd" clip-rule="evenodd" d="M14.6133 7.97656L14.5742 9.82422L12.8477 10.293L14.5469 10.8984L14.5078 12.5898L15.6133 11.2695L17.2891 11.8477L16.3203 10.4297L17.5 9.01953L15.6875 9.51953L14.6133 7.97656Z" fill="white"/>
</g>
<rect x="0.0195312" y="0.0195312" width="19.9609" height="19.9609" rx="9.98047" stroke="#ECF3FF" stroke-opacity="0.1" stroke-width="0.0390625"/>
<defs>
<clipPath id="clip0_28_4138">
<rect width="20" height="20" rx="10" fill="white"/>
</clipPath>
</defs>
</svg>
