<svg xmlns="http://www.w3.org/2000/svg" width="24" height="24" viewBox="0 0 24 24" fill="none">
  <path d="M16.82 9.69011L18.22 7.2501C18.36 7.0101 18.27 6.71011 18.04 6.57011C17.8 6.43011 17.5 6.5101 17.36 6.7501L15.93 9.23012C13.5 8.16012 10.52 8.15012 8.07003 9.23012L6.64004 6.7501C6.50004 6.5101 6.19005 6.43011 5.96005 6.57011C5.72005 6.71011 5.64005 7.0101 5.78005 7.2501L7.18002 9.69011C4.57002 11.2001 2.82003 13.8901 2.51003 16.9501C2.50003 17.0901 2.54004 17.2301 2.64004 17.3401C2.74004 17.4501 2.87003 17.5101 3.01003 17.5101H21.01C21.15 17.5101 21.29 17.4501 21.38 17.3401C21.47 17.2301 21.52 17.0901 21.51 16.9501C21.2 13.9001 19.4501 11.2101 16.8401 9.69011H16.82ZM7.87002 14.5701C7.45002 14.5701 7.11001 14.2301 7.11001 13.8101C7.11001 13.3901 7.45002 13.0601 7.87002 13.0601C8.29002 13.0601 8.62002 13.4001 8.62002 13.8101C8.62002 14.2201 8.28002 14.5701 7.87002 14.5701ZM16.13 14.5701C15.71 14.5701 15.38 14.2301 15.38 13.8101C15.38 13.3901 15.72 13.0601 16.13 13.0601C16.54 13.0601 16.89 13.4001 16.89 13.8101C16.89 14.2201 16.55 14.5701 16.13 14.5701Z" fill="black"/>
</svg>