<svg width="14" height="14" viewBox="0 0 14 14" fill="none" xmlns="http://www.w3.org/2000/svg">
    <path d="M13.0913 6.6792L11.2733 6.15985C9.60129 5.68185 8.31729 4.39852 7.83929 2.72585L7.31997 0.907859C7.23797 0.621859 6.76063 0.621859 6.67863 0.907859L6.1593 2.72585C5.6813 4.39852 4.3973 5.68252 2.7253 6.15985L0.907288 6.6792C0.763954 6.71987 0.665283 6.85119 0.665283 6.99986C0.665283 7.14853 0.763954 7.27918 0.907288 7.32052L2.7253 7.83987C4.3973 8.31787 5.6813 9.6012 6.1593 11.2739L6.67863 13.0919C6.71996 13.2352 6.85062 13.3339 6.99929 13.3339C7.14795 13.3339 7.27863 13.2352 7.31997 13.0919L7.83929 11.2739C8.31729 9.6012 9.60129 8.3172 11.2733 7.83987L13.0913 7.32052C13.2346 7.27985 13.3333 7.14853 13.3333 6.99986C13.3333 6.85119 13.2346 6.72053 13.0913 6.6792Z" fill="black"/>
</svg>
