<svg xmlns="http://www.w3.org/2000/svg" width="20" height="20" viewBox="0 0 20 20" fill="none">
  <path d="M9.58329 16.7168V10.6251H1.87496C1.75829 10.6251 1.66663 10.7167 1.66663 10.8334C1.66663 12.5001 2.49996 13.3334 4.16663 13.3334H7.49996V16.0417H5.41663C5.07496 16.0417 4.79163 16.3251 4.79163 16.6667C4.79163 17.0084 5.07496 17.2917 5.41663 17.2917H9.625C9.6 17.1084 9.58329 16.9168 9.58329 16.7168ZM14.1666 1.66675H4.16663C2.49996 1.66675 1.66663 2.50008 1.66663 4.16675V9.16675C1.66663 9.28342 1.75829 9.37508 1.87496 9.37508H9.625C9.84167 7.95008 10.8749 7.08341 12.4416 7.08341C12.4416 7.08341 16.1916 7.08341 16.4166 7.08341C16.5916 7.08341 16.6666 6.93337 16.6666 6.83337C16.6666 6.73337 16.6666 4.16675 16.6666 4.16675C16.6666 2.50008 15.8333 1.66675 14.1666 1.66675ZM16.7258 8.33342H12.4399C11.3683 8.33342 10.8325 8.87249 10.8325 9.95166V16.7152C10.8325 17.7943 11.3683 18.3334 12.4399 18.3334H16.7258C17.7975 18.3334 18.3333 17.7943 18.3333 16.7152V9.95166C18.3333 8.87249 17.7975 8.33342 16.7258 8.33342ZM14.5833 17.0834C14.1233 17.0834 13.75 16.7101 13.75 16.2501C13.75 15.7901 14.1233 15.4167 14.5833 15.4167C15.0433 15.4167 15.4166 15.7901 15.4166 16.2501C15.4166 16.7101 15.0433 17.0834 14.5833 17.0834Z" fill="white"/>
</svg>