<svg xmlns="http://www.w3.org/2000/svg" width="20" height="20" viewBox="0 0 20 20" fill="none">
  <path d="M10.0151 1.66669C8.14839 2.59252 6.66667 3.33335 2.5 4.16669C2.5 5.11419 2.5 8.08495 2.5 9.07412C2.5 14.63 7.2225 17.4075 10 18.3334C12.7775 17.4075 17.5 14.63 17.5 9.07412C17.5 8.05328 17.5 5.16169 17.5 4.16669C13.3333 3.33335 11.8517 2.59252 10.0151 1.66669ZM12.9517 8.77505L9.61833 12.1084C9.49666 12.23 9.33664 12.2917 9.17664 12.2917C9.01664 12.2917 8.85661 12.2309 8.73494 12.1084L7.06828 10.4417C6.82411 10.1975 6.82411 9.80168 7.06828 9.55752C7.31244 9.31335 7.70831 9.31335 7.95247 9.55752L9.17745 10.7825L12.0691 7.89085C12.3133 7.64668 12.7091 7.64668 12.9533 7.89085C13.1975 8.13502 13.1958 8.53088 12.9517 8.77505Z" fill="#96E14F"/>
</svg>