<svg xmlns="http://www.w3.org/2000/svg" width="20" height="20" viewBox="0 0 20 20" fill="none">
  <path d="M10.625 7.45834V2.74999C10.625 2.61166 10.7367 2.5 10.875 2.5H13.95C15.8333 2.5 16.0417 3.24166 16.35 4.31666L17.2283 7.39001C17.2741 7.55001 17.1542 7.70833 16.9883 7.70833H10.875C10.7367 7.70833 10.625 7.59668 10.625 7.45834ZM3.01168 7.70833H9.12496C9.26329 7.70833 9.375 7.59668 9.375 7.45834V2.74999C9.375 2.61166 9.26329 2.5 9.12496 2.5H6.05001C4.16667 2.5 3.95834 3.24166 3.65 4.31666L2.77171 7.39001C2.72587 7.54918 2.84584 7.70833 3.01168 7.70833ZM17.5 9.20832V15C17.5 16.6667 16.6667 17.5 15 17.5H5C3.33333 17.5 2.5 16.6667 2.5 15V9.20832C2.5 9.06999 2.61171 8.95833 2.75004 8.95833H17.25C17.3883 8.95833 17.5 9.06999 17.5 9.20832ZM12.525 10.9467C12.2809 10.7025 11.885 10.7025 11.6408 10.9467L9.30501 13.2825L8.35754 12.3358C8.11338 12.0917 7.71751 12.0917 7.47335 12.3358C7.22918 12.58 7.22918 12.9758 7.47335 13.22L8.86251 14.6092C8.98417 14.7308 9.1442 14.7925 9.3042 14.7925C9.4642 14.7925 9.62412 14.7317 9.74579 14.6092L12.5233 11.8317C12.7691 11.5867 12.7692 11.1908 12.525 10.9467Z" fill="white"/>
</svg>