<svg xmlns="http://www.w3.org/2000/svg" width="16" height="16" viewBox="0 0 16 16" fill="none">
  <path d="M13.46 11.7267L9.06667 13.7667C8.39334 14.08 7.60666 14.08 6.93333 13.7667L2.54 11.7267C1.82 11.3933 1.82 10.3667 2.54 10.0333L2.63334 9.99333L6.51333 11.7867C6.97999 12.0067 7.48 12.12 8 12.12C8.52 12.12 9.02001 12.0067 9.48668 11.7867L13.3667 9.99333L13.46 10.0333C14.18 10.3667 14.18 11.3933 13.46 11.7267ZM13.46 7.14667L13.3733 7.10667L10.2667 8.55332L9.48668 8.91333C9.02001 9.12666 8.52 9.23999 8 9.23999C7.48 9.23999 6.97999 9.12666 6.51333 8.91333L5.73334 8.55332L2.62667 7.10667L2.54 7.14667C1.82 7.48667 1.82 8.51333 2.54 8.84666L3.82001 9.44L6.93333 10.88C7.27333 11.04 7.63334 11.12 8 11.12C8.36667 11.12 8.72667 11.04 9.06667 10.88L12.18 9.44L13.46 8.84666C14.18 8.51333 14.18 7.48667 13.46 7.14667ZM13.46 4.27334L9.06667 2.23334C8.72667 2.08 8.36667 2 8 2C7.63334 2 7.27333 2.08 6.93333 2.23334L2.54 4.27334C1.82 4.60667 1.82 5.63334 2.54 5.96667L2.62667 6.00667L3.21999 6.28001L3.81334 6.56L6.93333 8.00667C7.27333 8.16001 7.63334 8.23999 8 8.23999C8.36667 8.23999 8.72667 8.16001 9.06667 8.00667L12.1867 6.56L12.78 6.28001L13.3733 6.00667L13.46 5.96667C14.18 5.63334 14.18 4.60667 13.46 4.27334Z" fill="black"/>
</svg>