<svg xmlns="http://www.w3.org/2000/svg" width="20" height="20" viewBox="0 0 20 20" fill="none">
  <path d="M16.825 14.6583L11.3333 17.2083C10.4917 17.6 9.50833 17.6 8.66666 17.2083L3.175 14.6583C2.275 14.2417 2.275 12.9583 3.175 12.5417L3.29168 12.4917L8.14166 14.7333C8.72499 15.0083 9.35 15.15 10 15.15C10.65 15.15 11.275 15.0083 11.8583 14.7333L16.7083 12.4917L16.825 12.5417C17.725 12.9583 17.725 14.2417 16.825 14.6583ZM16.825 8.93333L16.7167 8.88334L12.8333 10.6917L11.8583 11.1417C11.275 11.4083 10.65 11.55 10 11.55C9.35 11.55 8.72499 11.4083 8.14166 11.1417L7.16667 10.6917L3.28334 8.88334L3.175 8.93333C2.275 9.35833 2.275 10.6417 3.175 11.0583L4.77501 11.8L8.66666 13.6C9.09166 13.8 9.54167 13.9 10 13.9C10.4583 13.9 10.9083 13.8 11.3333 13.6L15.225 11.8L16.825 11.0583C17.725 10.6417 17.725 9.35833 16.825 8.93333ZM16.825 5.34167L11.3333 2.79167C10.9083 2.60001 10.4583 2.5 10 2.5C9.54167 2.5 9.09166 2.60001 8.66666 2.79167L3.175 5.34167C2.275 5.75834 2.275 7.04168 3.175 7.45834L3.28334 7.50834L4.02499 7.85001L4.76667 8.2L8.66666 10.0083C9.09166 10.2 9.54167 10.3 10 10.3C10.4583 10.3 10.9083 10.2 11.3333 10.0083L15.2333 8.2L15.975 7.85001L16.7167 7.50834L16.825 7.45834C17.725 7.04168 17.725 5.75834 16.825 5.34167Z" fill="white"/>
</svg>