<svg xmlns="http://www.w3.org/2000/svg" width="18" height="16" viewBox="0 0 18 16" fill="none">
  <path d="M14.625 13.2916C14.625 14.985 13.6825 15.9167 11.9725 15.9167H6.02749C4.31749 15.9167 3.375 14.9841 3.375 13.2916C3.375 11.385 4.4583 9.15835 7.51247 9.15835H10.4867C13.5417 9.15751 14.625 11.385 14.625 13.2916ZM9.00671 7.5933C10.625 7.5933 11.9409 6.28248 11.9409 4.67165C11.9409 3.05998 10.6242 1.75 9.00671 1.75C7.38921 1.75 6.07336 3.06082 6.07336 4.67165C6.07336 6.28248 7.38838 7.5933 9.00671 7.5933ZM14.6584 5.44171H13.3167C13.2 5.44171 13.1 5.52503 13.075 5.63336C12.8917 6.42503 12.475 7.13332 11.9 7.67499C11.7583 7.80832 11.8417 8.04165 12.0333 8.09165C13.5083 8.44165 14.5333 9.30835 15.1417 10.4083C15.1833 10.5 15.2667 10.5583 15.375 10.5583H15.725C17.0333 10.5583 17.75 9.84169 17.75 8.54169C17.75 7.11669 16.9417 5.44171 14.6584 5.44171ZM13.5917 0.0833333C12.76 0.0833333 12.0341 0.539131 11.6533 1.2133C11.6225 1.2683 11.6241 1.32915 11.6358 1.38165C11.6483 1.43665 11.6725 1.46588 11.7242 1.50922C12.54 2.19672 13.0842 3.19253 13.1734 4.31836C13.1784 4.38169 13.2 4.42086 13.2384 4.46169C13.2767 4.50252 13.3342 4.52745 13.41 4.53412C13.4692 4.53912 13.53 4.54246 13.5917 4.54246C14.8167 4.54246 15.8167 3.54252 15.8167 2.30918C15.8167 1.08335 14.8167 0.0833333 13.5917 0.0833333ZM0.25 8.54169C0.25 9.84169 0.966711 10.5583 2.27504 10.5583H2.62498C2.73331 10.5583 2.81667 10.5 2.85834 10.4083C3.46667 9.30835 4.49165 8.44165 5.96665 8.09165C6.15832 8.04165 6.24168 7.80832 6.10002 7.67499C5.52502 7.13332 5.10832 6.42503 4.92499 5.63336C4.89999 5.52503 4.79996 5.44171 4.68329 5.44171H3.34163C1.0583 5.44171 0.25 7.11669 0.25 8.54169ZM2.18329 2.30837C2.18329 3.5417 3.18333 4.54165 4.40833 4.54165C4.46999 4.54165 4.53084 4.5383 4.59001 4.5333C4.66667 4.52664 4.72328 4.50171 4.76162 4.46088C4.79995 4.42004 4.82162 4.38088 4.82662 4.31755C4.91579 3.19171 5.45996 2.1958 6.2758 1.5083C6.32663 1.46497 6.3517 1.43584 6.3642 1.38084C6.37586 1.32834 6.37753 1.26832 6.3467 1.21248C5.96503 0.538317 5.23999 0.0825195 4.40833 0.0825195C3.18333 0.0833529 2.18329 1.08337 2.18329 2.30837Z" fill="white"/>
</svg>