<svg xmlns="http://www.w3.org/2000/svg" width="16" height="16" viewBox="0 0 16 16" fill="none">
  <path d="M1.58337 9.24997H7.375V15.25C7.375 15.3883 7.26329 15.5 7.12496 15.5H3.83333C2.16667 15.5 1.33333 14.6666 1.33333 13V9.49996C1.33333 9.36162 1.44504 9.24997 1.58337 9.24997ZM14.4166 9.24997H8.625V15.25C8.625 15.3883 8.73671 15.5 8.87504 15.5H12.1667C13.8333 15.5 14.6667 14.6666 14.6667 13V9.49996C14.6667 9.36162 14.555 9.24997 14.4166 9.24997ZM15.5 5.0833V7.74998C15.5 7.88831 15.3883 7.99997 15.25 7.99997H8.625V5.0833H7.375V7.99997H0.750041C0.611707 7.99997 0.5 7.88831 0.5 7.74998V5.0833C0.5 4.3933 1.06 3.8333 1.75 3.8333H2.63745C2.37162 3.3183 2.27251 2.70413 2.50918 2.03663C2.74501 1.37163 3.28329 0.820815 3.95662 0.609982C4.88829 0.318315 5.84666 0.623292 6.43333 1.33579C6.46 1.36829 7.39748 2.61578 8.00081 3.41745C8.60331 2.61578 9.54 1.37079 9.5625 1.34245C10.1533 0.624121 11.1033 0.321613 12.0325 0.604947C12.6825 0.804113 13.2108 1.31914 13.4608 1.95164C13.7375 2.65164 13.6408 3.29582 13.3642 3.83249H14.2516C14.94 3.83332 15.5 4.3933 15.5 5.0833ZM6.74837 3.8333C6.18421 3.0833 5.5025 2.17662 5.45666 2.11745C5.26583 1.88495 4.98167 1.74997 4.66667 1.74997C4.0925 1.74997 3.625 2.21747 3.625 2.79163C3.625 3.3658 4.0925 3.8333 4.66667 3.8333H6.74837ZM12.375 2.79163C12.375 2.21747 11.9075 1.74997 11.3333 1.74997C11.0183 1.74997 10.7341 1.88494 10.5325 2.13077C10.4933 2.18244 9.81413 3.08497 9.25163 3.8333H11.3333C11.9075 3.8333 12.375 3.3658 12.375 2.79163Z" fill="white"/>
</svg>