<svg xmlns="http://www.w3.org/2000/svg" width="15" height="12" viewBox="0 0 15 12" fill="none">
  <path d="M13.9709 6.47221L9.30485 11.1382C9.17485 11.2682 9.00416 11.3335 8.8335 11.3335C8.66283 11.3335 8.49214 11.2682 8.36214 11.1382C8.10148 10.8776 8.10148 10.4562 8.36214 10.1955L11.8908 6.66687H1.50016C1.1315 6.66687 0.833496 6.36821 0.833496 6.00021C0.833496 5.63221 1.1315 5.33354 1.50016 5.33354H11.8908L8.36214 1.8049C8.10148 1.54423 8.10148 1.12285 8.36214 0.862187C8.62281 0.60152 9.04418 0.60152 9.30485 0.862187L13.9709 5.5282C14.0329 5.5902 14.0816 5.66349 14.1156 5.74549C14.1829 5.90815 14.1829 6.09226 14.1156 6.25493C14.0816 6.33693 14.0329 6.41021 13.9709 6.47221Z" fill="black"/>
</svg>