<svg xmlns="http://www.w3.org/2000/svg" width="11" height="11" viewBox="0 0 11 11" fill="none">
  <path d="M10.8334 1.33335V8.00002C10.8334 8.36802 10.5354 8.66669 10.1668 8.66669C9.79811 8.66669 9.50011 8.36802 9.50011 8.00002V2.94273L1.97146 10.4714C1.84146 10.6014 1.67077 10.6667 1.50011 10.6667C1.32944 10.6667 1.15875 10.6014 1.02875 10.4714C0.768085 10.2107 0.768085 9.78933 1.02875 9.52867L8.5574 2.00002H3.50011C3.13144 2.00002 2.83344 1.70135 2.83344 1.33335C2.83344 0.965354 3.13144 0.666687 3.50011 0.666687H10.1668C10.2534 0.666687 10.3402 0.684623 10.4215 0.717957C10.5848 0.78529 10.7148 0.9153 10.7822 1.07863C10.8162 1.15997 10.8334 1.24669 10.8334 1.33335Z" fill="black"/>
</svg>