<svg xmlns="http://www.w3.org/2000/svg" width="20" height="20" viewBox="0 0 20 20" fill="none">
  <path d="M1.66675 5.00002C1.66675 4.54002 2.04008 4.16669 2.50008 4.16669H17.5001C17.9601 4.16669 18.3334 4.54002 18.3334 5.00002C18.3334 5.46002 17.9601 5.83335 17.5001 5.83335H2.50008C2.04008 5.83335 1.66675 5.46002 1.66675 5.00002ZM17.5001 9.16669H2.50008C2.04008 9.16669 1.66675 9.54002 1.66675 10C1.66675 10.46 2.04008 10.8334 2.50008 10.8334H17.5001C17.9601 10.8334 18.3334 10.46 18.3334 10C18.3334 9.54002 17.9601 9.16669 17.5001 9.16669ZM17.5001 14.1667H2.50008C2.04008 14.1667 1.66675 14.54 1.66675 15C1.66675 15.46 2.04008 15.8334 2.50008 15.8334H17.5001C17.9601 15.8334 18.3334 15.46 18.3334 15C18.3334 14.54 17.9601 14.1667 17.5001 14.1667Z" fill="white"/>
</svg>