<svg xmlns="http://www.w3.org/2000/svg" width="18" height="18" viewBox="0 0 18 18" fill="none">
  <path d="M15.25 4.20833H14.3625C14.5242 3.89417 14.625 3.54333 14.625 3.16667C14.625 1.90333 13.5975 0.875 12.3333 0.875C11.6483 0.875 11.0042 1.17999 10.5617 1.71749C10.5392 1.74582 9.6025 2.99081 9 3.79248C8.39667 2.98998 7.45918 1.74333 7.43252 1.71083C6.99585 1.17916 6.35167 0.875 5.66667 0.875C4.4025 0.875 3.375 1.90333 3.375 3.16667C3.375 3.54333 3.47495 3.89417 3.63745 4.20833H2.75C1.71667 4.20833 0.875 5.04917 0.875 6.08333V9C0.875 9.345 1.155 9.625 1.5 9.625H1.70833V14C1.70833 16.015 2.81833 17.125 4.83333 17.125H13.1667C15.1817 17.125 16.2917 16.015 16.2917 14V9.625H16.5C16.845 9.625 17.125 9.345 17.125 9V6.08333C17.125 5.04917 16.2833 4.20833 15.25 4.20833ZM15.875 6.08333V8.375H9.625V5.45833H12.3333H15.25C15.5942 5.45833 15.875 5.73833 15.875 6.08333ZM11.5325 2.50581C11.7341 2.26081 12.0183 2.125 12.3333 2.125C12.9075 2.125 13.375 2.5925 13.375 3.16667C13.375 3.74083 12.9075 4.20833 12.3333 4.20833H10.2516C10.8141 3.46 11.4933 2.55664 11.5325 2.50581ZM4.625 3.16667C4.625 2.5925 5.0925 2.125 5.66667 2.125C5.98167 2.125 6.26583 2.25998 6.45666 2.49248C6.5025 2.55165 7.18421 3.45833 7.74837 4.20833H5.66667C5.0925 4.20833 4.625 3.74083 4.625 3.16667ZM2.125 6.08333C2.125 5.73833 2.40583 5.45833 2.75 5.45833H5.66667H8.375V8.375H2.125V6.08333ZM2.95833 14V9.625H8.375V15.875H4.83333C3.51917 15.875 2.95833 15.3142 2.95833 14ZM15.0417 14C15.0417 15.3142 14.4808 15.875 13.1667 15.875H9.625V9.625H15.0417V14Z" fill="#ECF3FF" fill-opacity="0.75"/>
</svg>