<svg xmlns="http://www.w3.org/2000/svg" width="16" height="12" viewBox="0 0 16 12" fill="none">
  <path d="M0.5 6.56668C1.14167 7.17668 2.00918 7.69587 3.04501 8.08254C3.14168 8.11837 3.20833 8.21002 3.20833 8.31335V10.7442C3.20833 10.9225 3.02249 11.0484 2.85916 10.9775C1.40416 10.3517 0.5 9.38252 0.5 8.08335V6.56668ZM7.375 9.13585V11.5542C7.375 11.6967 7.25332 11.8133 7.11082 11.8075C6.23582 11.7733 5.40583 11.675 4.65583 11.5175C4.53917 11.4933 4.45833 11.3884 4.45833 11.2692V8.82503C4.45833 8.66587 4.60081 8.55086 4.75664 8.5842C5.49748 8.74503 6.29749 8.85 7.13666 8.88917C7.26916 8.89667 7.375 9.00335 7.375 9.13585ZM11.5417 8.82585V11.27C11.5417 11.3892 11.4617 11.4942 11.3442 11.5184C10.5933 11.6759 9.76335 11.7742 8.88918 11.8083C8.74668 11.8142 8.625 11.6975 8.625 11.555V9.13667C8.625 9.00417 8.73084 8.89752 8.86334 8.89085C9.70334 8.85168 10.5025 8.74671 11.2434 8.58588C11.3992 8.55171 11.5417 8.66668 11.5417 8.82585ZM15.5 6.56668V8.08335C15.5 9.38252 14.5958 10.3517 13.1408 10.9775C12.9775 11.0475 12.7917 10.9217 12.7917 10.7442V8.31335C12.7917 8.21002 12.8583 8.11837 12.955 8.08254C13.9908 7.69587 14.8583 7.17668 15.5 6.56668ZM0.5 3.91669C0.5 5.98752 3.8575 7.66669 8 7.66669C12.1425 7.66669 15.5 5.98752 15.5 3.91669C15.5 1.84585 12.1425 0.166687 8 0.166687C3.8575 0.166687 0.5 1.84585 0.5 3.91669Z" fill="#ECF3FF" fill-opacity="0.5"/>
</svg>