<svg xmlns="http://www.w3.org/2000/svg" width="20" height="20" viewBox="0 0 20 20" fill="none">
  <path d="M3.58337 11.25H9.375V17.25C9.375 17.3883 9.26329 17.5 9.12496 17.5H5.83333C4.16667 17.5 3.33333 16.6666 3.33333 15V11.5C3.33333 11.3616 3.44504 11.25 3.58337 11.25ZM16.4166 11.25H10.625V17.25C10.625 17.3883 10.7367 17.5 10.875 17.5H14.1667C15.8333 17.5 16.6667 16.6666 16.6667 15V11.5C16.6667 11.3616 16.555 11.25 16.4166 11.25ZM17.5 7.0833V9.74998C17.5 9.88831 17.3883 9.99997 17.25 9.99997H10.625V7.0833H9.375V9.99997H2.75004C2.61171 9.99997 2.5 9.88831 2.5 9.74998V7.0833C2.5 6.3933 3.06 5.8333 3.75 5.8333H4.63745C4.37162 5.3183 4.27251 4.70413 4.50918 4.03663C4.74501 3.37163 5.28329 2.82082 5.95662 2.60998C6.88829 2.31832 7.84666 2.62329 8.43333 3.33579C8.46 3.36829 9.39748 4.61578 10.0008 5.41745C10.6033 4.61578 11.54 3.37079 11.5625 3.34245C12.1533 2.62412 13.1033 2.32161 14.0325 2.60495C14.6825 2.80411 15.2108 3.31914 15.4608 3.95164C15.7375 4.65164 15.6408 5.29582 15.3642 5.83249H16.2516C16.94 5.83332 17.5 6.3933 17.5 7.0833ZM8.74837 5.8333C8.18421 5.0833 7.5025 4.17662 7.45666 4.11745C7.26583 3.88495 6.98167 3.74997 6.66667 3.74997C6.0925 3.74997 5.625 4.21747 5.625 4.79163C5.625 5.3658 6.0925 5.8333 6.66667 5.8333H8.74837ZM14.375 4.79163C14.375 4.21747 13.9075 3.74997 13.3333 3.74997C13.0183 3.74997 12.7341 3.88494 12.5325 4.13077C12.4933 4.18244 11.8141 5.08497 11.2516 5.8333H13.3333C13.9075 5.8333 14.375 5.3658 14.375 4.79163Z" fill="#ECF3FF" fill-opacity="0.5"/>
</svg>