<svg xmlns="http://www.w3.org/2000/svg" width="20" height="20" viewBox="0 0 20 20" fill="none">
  <path d="M10.0001 1.66669C5.39758 1.66669 1.66675 5.39752 1.66675 10C1.66675 14.6025 5.39758 18.3334 10.0001 18.3334C14.6026 18.3334 18.3334 14.6025 18.3334 10C18.3334 5.39752 14.6026 1.66669 10.0001 1.66669ZM10.0168 14.5834C9.55676 14.5834 9.17916 14.21 9.17916 13.75C9.17916 13.29 9.54842 12.9167 10.0084 12.9167H10.0168C10.4776 12.9167 10.8501 13.29 10.8501 13.75C10.8501 14.21 10.4768 14.5834 10.0168 14.5834ZM11.3359 10.4401C10.7268 10.8484 10.6134 11.0759 10.5925 11.1359C10.505 11.3967 10.2617 11.5617 10.0001 11.5617C9.93425 11.5617 9.86755 11.5517 9.80172 11.5292C9.47422 11.4192 9.29847 11.065 9.40763 10.7375C9.55847 10.2875 9.94932 9.86336 10.6393 9.40086C11.4902 8.83086 11.3809 8.20592 11.3451 8.00092C11.2509 7.45592 10.7917 6.99159 10.2526 6.89659C9.84256 6.82159 9.44183 6.92909 9.1285 7.19159C8.8135 7.45576 8.63249 7.84495 8.63249 8.25828C8.63249 8.60328 8.35249 8.88328 8.00749 8.88328C7.66249 8.88328 7.38249 8.60328 7.38249 8.25828C7.38249 7.47411 7.72591 6.73665 8.32507 6.23415C8.91841 5.73748 9.69922 5.53006 10.4701 5.66673C11.5259 5.85339 12.3918 6.72583 12.576 7.7875C12.7593 8.83916 12.3184 9.78175 11.3359 10.4401Z" fill="#ECF3FF" fill-opacity="0.5"/>
</svg>