<svg xmlns="http://www.w3.org/2000/svg" width="20" height="20" viewBox="0 0 20 20" fill="none">
  <path d="M9.99984 18.9583C5.05984 18.9583 1.0415 14.94 1.0415 9.99996C1.0415 5.05996 5.05984 1.04163 9.99984 1.04163C14.9398 1.04163 18.9582 5.05996 18.9582 9.99996C18.9582 14.94 14.9398 18.9583 9.99984 18.9583ZM9.99984 2.29163C5.749 2.29163 2.2915 5.74913 2.2915 9.99996C2.2915 14.2508 5.749 17.7083 9.99984 17.7083C14.2507 17.7083 17.7082 14.2508 17.7082 9.99996C17.7082 5.74913 14.2507 2.29163 9.99984 2.29163ZM10.6248 13.75V9.94076C10.6248 9.59576 10.3448 9.31576 9.99984 9.31576C9.65484 9.31576 9.37484 9.59576 9.37484 9.94076V13.75C9.37484 14.095 9.65484 14.375 9.99984 14.375C10.3448 14.375 10.6248 14.095 10.6248 13.75ZM10.8499 7.08329C10.8499 6.62329 10.4774 6.24996 10.0165 6.24996H10.0082C9.54818 6.24996 9.17892 6.62329 9.17892 7.08329C9.17892 7.54329 9.55652 7.91663 10.0165 7.91663C10.4765 7.91663 10.8499 7.54329 10.8499 7.08329Z" fill="#ECF3FF" fill-opacity="0.5"/>
</svg>