<svg xmlns="http://www.w3.org/2000/svg" width="20" height="20" viewBox="0 0 20 20" fill="none">
  <path d="M15.625 15.2916C15.625 16.985 14.6825 17.9167 12.9725 17.9167H7.02749C5.31749 17.9167 4.375 16.9841 4.375 15.2916C4.375 13.385 5.4583 11.1583 8.51247 11.1583H11.4867C14.5417 11.1575 15.625 13.385 15.625 15.2916ZM10.0067 9.5933C11.625 9.5933 12.9409 8.28248 12.9409 6.67165C12.9409 5.05998 11.6242 3.75 10.0067 3.75C8.38921 3.75 7.07336 5.06082 7.07336 6.67165C7.07336 8.28248 8.38838 9.5933 10.0067 9.5933ZM15.6584 7.44171H14.3167C14.2 7.44171 14.1 7.52503 14.075 7.63336C13.8917 8.42503 13.475 9.13332 12.9 9.67499C12.7583 9.80832 12.8417 10.0417 13.0333 10.0917C14.5083 10.4417 15.5333 11.3083 16.1417 12.4083C16.1833 12.5 16.2667 12.5583 16.375 12.5583H16.725C18.0333 12.5583 18.75 11.8417 18.75 10.5417C18.75 9.11669 17.9417 7.44171 15.6584 7.44171ZM14.5917 2.08333C13.76 2.08333 13.0341 2.53913 12.6533 3.2133C12.6225 3.2683 12.6241 3.32915 12.6358 3.38165C12.6483 3.43665 12.6725 3.46588 12.7242 3.50922C13.54 4.19672 14.0842 5.19253 14.1734 6.31836C14.1784 6.38169 14.2 6.42086 14.2384 6.46169C14.2767 6.50252 14.3342 6.52745 14.41 6.53412C14.4692 6.53912 14.53 6.54246 14.5917 6.54246C15.8167 6.54246 16.8167 5.54252 16.8167 4.30918C16.8167 3.08335 15.8167 2.08333 14.5917 2.08333ZM1.25 10.5417C1.25 11.8417 1.96671 12.5583 3.27504 12.5583H3.62498C3.73331 12.5583 3.81667 12.5 3.85834 12.4083C4.46667 11.3083 5.49165 10.4417 6.96665 10.0917C7.15832 10.0417 7.24168 9.80832 7.10002 9.67499C6.52502 9.13332 6.10832 8.42503 5.92499 7.63336C5.89999 7.52503 5.79996 7.44171 5.68329 7.44171H4.34163C2.0583 7.44171 1.25 9.11669 1.25 10.5417ZM3.18329 4.30837C3.18329 5.5417 4.18333 6.54165 5.40833 6.54165C5.46999 6.54165 5.53084 6.5383 5.59001 6.5333C5.66667 6.52664 5.72328 6.50171 5.76162 6.46088C5.79995 6.42004 5.82162 6.38088 5.82662 6.31755C5.91579 5.19171 6.45996 4.1958 7.2758 3.5083C7.32663 3.46497 7.3517 3.43584 7.3642 3.38084C7.37586 3.32834 7.37753 3.26832 7.3467 3.21248C6.96503 2.53832 6.23999 2.08252 5.40833 2.08252C4.18333 2.08335 3.18329 3.08337 3.18329 4.30837Z" fill="#ECF3FF" fill-opacity="0.5"/>
</svg>