<svg xmlns="http://www.w3.org/2000/svg" width="13" height="14" viewBox="0 0 13 14" fill="none">
  <path d="M12.5913 6.6792L10.7733 6.15985C9.10129 5.68185 7.81729 4.39852 7.33929 2.72585L6.81997 0.907859C6.73797 0.621859 6.26063 0.621859 6.17863 0.907859L5.6593 2.72585C5.1813 4.39852 3.8973 5.68252 2.2253 6.15985L0.407288 6.6792C0.263954 6.71987 0.165283 6.85119 0.165283 6.99986C0.165283 7.14853 0.263954 7.27918 0.407288 7.32052L2.2253 7.83987C3.8973 8.31787 5.1813 9.6012 5.6593 11.2739L6.17863 13.0919C6.21996 13.2352 6.35062 13.3339 6.49929 13.3339C6.64795 13.3339 6.77863 13.2352 6.81997 13.0919L7.33929 11.2739C7.81729 9.6012 9.10129 8.3172 10.7733 7.83987L12.5913 7.32052C12.7346 7.27985 12.8333 7.14853 12.8333 6.99986C12.8333 6.85119 12.7346 6.72053 12.5913 6.6792Z" fill="black"/>
</svg>