<svg xmlns="http://www.w3.org/2000/svg" width="20" height="20" viewBox="0 0 20 20" fill="none">
  <path d="M17.15 5.46664L15.3333 7.2833C14.85 7.7583 14.0583 7.75831 13.575 7.27498L12.725 6.42497C12.2417 5.94163 12.2417 5.14996 12.725 4.67496L14.5333 2.84998C13.2583 2.34165 11.675 2.32496 10.1917 3.21663C9.59166 3.57496 9.08333 4.05831 8.725 4.64165C8.7 4.67498 8.675 4.70832 8.65833 4.74998C8.00833 5.82498 7.83334 6.94997 7.98334 7.96664C8.04167 8.34997 7.90834 8.7333 7.63334 8.99996L3.2 13.4416C2.73333 13.9 2.5 14.5167 2.5 15.1167C2.5 15.7333 2.73333 16.3333 3.2 16.8C4.125 17.7333 5.63333 17.7333 6.55833 16.8L11 12.3666C11.2667 12.0916 11.65 11.9583 12.0333 12.0167C13.05 12.1667 14.175 11.9916 15.2417 11.35C15.875 10.975 16.4083 10.4416 16.775 9.81664C17.675 8.33331 17.6583 6.74164 17.15 5.46664ZM5.01667 15.8333C4.55834 15.8333 4.18334 15.4583 4.18334 15C4.18334 14.5416 4.55 14.1666 5.00833 14.1666H5.01667C5.475 14.1666 5.85 14.5416 5.85 15C5.85 15.4583 5.475 15.8333 5.01667 15.8333Z" fill="#ECF3FF" fill-opacity="0.5"/>
</svg>