<svg xmlns="http://www.w3.org/2000/svg" width="17" height="16" viewBox="0 0 17 16" fill="white">
  <path d="M13.8334 3.33329V9.99996C13.8334 10.368 13.5354 10.6666 13.1668 10.6666C12.7981 10.6666 12.5001 10.368 12.5001 9.99996V4.94267L4.97146 12.4713C4.84146 12.6013 4.67077 12.6666 4.50011 12.6666C4.32944 12.6666 4.15875 12.6013 4.02875 12.4713C3.76809 12.2106 3.76809 11.7893 4.02875 11.5286L11.5574 3.99996H6.50011C6.13144 3.99996 5.83344 3.70129 5.83344 3.33329C5.83344 2.96529 6.13144 2.66663 6.50011 2.66663H13.1668C13.2534 2.66663 13.3402 2.68456 13.4215 2.7179C13.5848 2.78523 13.7148 2.91524 13.7822 3.07857C13.8162 3.15991 13.8334 3.24663 13.8334 3.33329Z" fill="white"/>
</svg>