<svg xmlns="http://www.w3.org/2000/svg" width="16" height="16" viewBox="0 0 16 16" fill="none">
  <path d="M15.614 7.59912L13.3416 6.94994C11.2516 6.35244 9.64656 4.74827 9.04906 2.65744L8.3999 0.384946C8.2974 0.0274463 7.70073 0.0274463 7.59823 0.384946L6.94907 2.65744C6.35157 4.74827 4.74657 6.35327 2.65657 6.94994L0.384048 7.59912C0.204882 7.64996 0.081543 7.81411 0.081543 7.99995C0.081543 8.18578 0.204882 8.3491 0.384048 8.40077L2.65657 9.04995C4.74657 9.64745 6.35157 11.2516 6.94907 13.3425L7.59823 15.6149C7.64989 15.7941 7.81322 15.9175 7.99905 15.9175C8.18488 15.9175 8.34823 15.7941 8.3999 15.6149L9.04906 13.3425C9.64656 11.2516 11.2516 9.64662 13.3416 9.04995L15.614 8.40077C15.7932 8.34994 15.9166 8.18578 15.9166 7.99995C15.9166 7.81411 15.7932 7.65079 15.614 7.59912Z" fill="white"/>
</svg>