<svg xmlns="http://www.w3.org/2000/svg" width="20" height="20" viewBox="0 0 20 20" fill="none">
  <path d="M10.0001 1.04163C5.06008 1.04163 1.04175 5.06079 1.04175 9.99996C1.04175 14.9391 5.06008 18.9583 10.0001 18.9583C14.9401 18.9583 18.9584 14.9391 18.9584 9.99996C18.9584 5.06079 14.9401 1.04163 10.0001 1.04163ZM2.29175 9.99996C2.29175 9.11163 2.45007 8.26162 2.7284 7.46662C3.24507 11.225 6.54175 11.5425 6.68425 12.1416C6.84258 12.8166 6.68425 13.0166 6.74258 14.175C6.80092 15.3333 8.4009 15.35 9.01757 16.2666C9.19923 16.5333 9.30427 17.1041 9.25927 17.6708C5.3551 17.2966 2.29175 14 2.29175 9.99996ZM12.0918 17.4125C12.6593 15.635 14.3634 15.0325 14.5367 14.005C14.6759 13.1808 13.5926 12.7591 12.6201 12.6391C11.6567 12.5283 11.7959 11.5191 11.1109 10.8058C10.4259 10.0925 9.97758 10.1333 9.01508 10.2533C8.04258 10.3641 7.22756 10.295 6.95839 9.70246C6.69923 9.10996 7.03257 8.82663 6.32424 8.09246C5.73424 7.48079 6.36757 6.93247 6.68257 6.8583C7.18257 6.7383 8.07173 7.61245 8.59256 7.50578C10.1617 7.18245 8.28174 4.11162 10.6384 3.33912C11.0509 3.20412 11.4367 2.8758 11.6309 2.46914C12.9776 2.7608 14.1892 3.40745 15.1742 4.30245C15.4451 5.07329 15.6334 5.9583 15.4759 6.42747C15.1609 7.39997 14.3701 8.09912 15.2334 9.69079C16.1343 11.3525 16.6901 11.5783 17.0951 11.1216C17.2559 10.94 17.4651 10.8116 17.6734 10.7341C17.3676 13.9316 15.1009 16.5616 12.0918 17.4125Z" fill="white"/>
</svg>