<svg xmlns="http://www.w3.org/2000/svg" width="20" height="20" viewBox="0 0 20 20" fill="none">
  <path d="M17.5 10.8333V15C17.5 16.6667 16.6667 17.5 15 17.5H5C3.33333 17.5 2.5 16.6667 2.5 15V10.8333C2.5 9.16667 3.33333 8.33333 5 8.33333H9.375V11.8242L7.94169 10.3908C7.69752 10.1467 7.30166 10.1467 7.0575 10.3908C6.81333 10.635 6.81333 11.0309 7.0575 11.275L9.55749 13.775C9.61499 13.8325 9.68408 13.8783 9.76074 13.91C9.83741 13.9417 9.91833 13.9583 10 13.9583C10.0817 13.9583 10.1626 13.9417 10.2393 13.91C10.3159 13.8783 10.385 13.8325 10.4425 13.775L12.9425 11.275C13.1867 11.0309 13.1867 10.635 12.9425 10.3908C12.6983 10.1467 12.3025 10.1467 12.0583 10.3908L10.625 11.8242V8.33333H15C16.6667 8.33333 17.5 9.16667 17.5 10.8333ZM10.625 2.5C10.625 2.155 10.345 1.875 10 1.875C9.655 1.875 9.375 2.155 9.375 2.5V8.33333H10.625V2.5Z" fill="white"/>
</svg>