<svg xmlns="http://www.w3.org/2000/svg" width="20" height="20" viewBox="0 0 20 20" fill="none">
  <path d="M17.5 6.66663V7.70829H2.5V6.66663C2.5 4.99996 3.33333 4.16663 5 4.16663H15C16.6667 4.16663 17.5 4.99996 17.5 6.66663ZM17.5 8.95829V13.3333C17.5 15 16.6667 15.8333 15 15.8333H5C3.33333 15.8333 2.5 15 2.5 13.3333V8.95829H17.5ZM8.95833 12.5C8.95833 12.155 8.67833 11.875 8.33333 11.875H5.83333C5.48833 11.875 5.20833 12.155 5.20833 12.5C5.20833 12.845 5.48833 13.125 5.83333 13.125H8.33333C8.67833 13.125 8.95833 12.845 8.95833 12.5Z" fill="white"/>
</svg>